<?xml version="1.0" encoding="UTF-8" standalone="no"?>
<!-- Created with Inkscape (http://www.inkscape.org/) -->

<svg
   width="210mm"
   height="148mm"
   viewBox="0 0 793.70081 559.37006"
   version="1.1"
   id="svg1"
   xml:space="preserve"
   inkscape:version="1.3 (0e150ed6c4, 2023-07-21)"
   sodipodi:docname="mecanum_wheel.svg"
   xmlns:inkscape="http://www.inkscape.org/namespaces/inkscape"
   xmlns:sodipodi="http://sodipodi.sourceforge.net/DTD/sodipodi-0.dtd"
   xmlns="http://www.w3.org/2000/svg"
   xmlns:svg="http://www.w3.org/2000/svg"><sodipodi:namedview
     id="namedview1"
     pagecolor="#ffffff"
     bordercolor="#000000"
     borderopacity="0.25"
     inkscape:showpageshadow="2"
     inkscape:pageopacity="0.0"
     inkscape:pagecheckerboard="0"
     inkscape:deskcolor="#d1d1d1"
     inkscape:document-units="mm"
     inkscape:zoom="1.4677224"
     inkscape:cx="310.00412"
     inkscape:cy="317.83939"
     inkscape:window-width="2560"
     inkscape:window-height="1377"
     inkscape:window-x="-8"
     inkscape:window-y="-8"
     inkscape:window-maximized="1"
     inkscape:current-layer="layer1" /><defs
     id="defs1" /><g
     inkscape:label="Layer 1"
     inkscape:groupmode="layer"
     id="layer1"><path
       style="fill:#000000;stroke-width:0.999997"
       d="m 453.55373,519.32313 c -0.95976,-0.36095 -2.13765,-0.76859 -2.61753,-0.90584 -0.47988,-0.13726 -1.10991,-0.43281 -1.40008,-0.65677 -0.76417,-0.58981 -5.8811,-3.32703 -6.77971,-3.62669 -0.41989,-0.14002 -0.76344,-0.42274 -0.76344,-0.62826 0,-0.20553 -1.03066,-0.88774 -2.29034,-1.51602 -1.25969,-0.62828 -2.89898,-1.65037 -3.64287,-2.2713 -3.6029,-3.00737 -5.22807,-4.2298 -6.85753,-5.15811 -2.44827,-1.39478 -7.11551,-5.25838 -12.29394,-10.17706 l -4.36255,-4.14373 -2.61753,0.27064 c -1.43964,0.14886 -3.20647,0.53488 -3.9263,0.85784 -1.32621,0.59503 -10.09597,2.7725 -11.18586,2.77739 -0.32616,0.001 -1.16101,0.29546 -1.85521,0.65334 -0.69421,0.35788 -3.73709,1.23042 -6.76196,1.93899 -3.02487,0.70858 -6.08871,1.56437 -6.80853,1.90175 -1.20903,0.56669 -6.58032,1.76853 -13.19672,2.95281 -1.49963,0.26843 -2.72659,0.62033 -2.72659,0.78201 0,0.16168 -1.12881,0.42736 -2.50847,0.59039 -1.37966,0.16303 -5.15872,0.78562 -8.39791,1.38355 -3.2392,0.59793 -6.77287,1.19149 -7.8526,1.31903 -1.07973,0.12754 -2.15946,0.3818 -2.3994,0.56503 -0.23994,0.18321 -2.30125,0.54627 -4.58068,0.80679 -12.80281,1.46322 -16.74987,1.76599 -23.02295,1.76599 -9.37947,0 -10.08571,-0.24981 -15.04032,-5.31986 -2.09947,-2.14841 -3.81909,-4.11054 -3.82137,-4.3603 -0.002,-0.24975 -0.74709,-1.61847 -1.65514,-3.04158 -0.90806,-1.42311 -1.92275,-3.26668 -2.25488,-4.09683 -0.33213,-0.83015 -1.23795,-2.77075 -2.01292,-4.31246 -0.91025,-1.81079 -1.75125,-4.55869 -2.37572,-7.76241 -0.53167,-2.72762 -1.18774,-5.42512 -1.45793,-5.99443 -0.70431,-1.48401 -0.65904,-12.76875 0.054,-13.47515 0.29993,-0.29711 0.54532,-1.04558 0.54532,-1.66326 0,-2.15754 2.35314,-4.9929 6.33859,-7.63752 2.06792,-1.3722 4.43243,-2.86869 5.25446,-3.32549 0.82203,-0.45683 1.49461,-1.08752 1.49461,-1.40155 0,-0.31404 -0.0765,-0.57098 -0.17011,-0.57098 -0.0935,0 -2.07831,-0.38812 -4.41058,-0.86248 -2.33225,-0.47438 -5.30475,-0.8625 -6.60554,-0.8625 -1.69984,0 -2.4357,-0.18194 -2.61618,-0.64686 -0.13811,-0.35578 -0.60913,-0.64688 -1.04673,-0.64688 -1.30534,0 -17.14293,-3.03295 -18.08813,-3.46394 -0.83943,-0.38276 -6.99942,-1.72357 -11.99701,-2.61131 -1.31967,-0.23443 -2.79204,-0.60228 -3.27192,-0.81746 -0.47987,-0.21518 -4.60249,-1.09598 -9.16135,-1.95735 -4.55887,-0.86136 -8.68148,-1.74372 -9.16136,-1.96079 -0.47988,-0.21706 -2.24672,-0.79009 -3.9263,-1.2734 -1.67958,-0.4833 -4.13352,-1.19074 -5.45319,-1.57209 -1.31967,-0.38136 -2.59572,-0.83344 -2.83566,-1.00462 -0.23994,-0.17119 -1.08995,-0.43384 -1.88891,-0.58366 -0.79897,-0.14982 -2.07501,-0.54705 -2.83566,-0.88272 -0.76065,-0.33566 -1.96513,-0.73972 -2.67663,-0.8979 -0.7115,-0.15818 -2.124,-0.66154 -3.13892,-1.11857 -1.01489,-0.45704 -2.05534,-0.83097 -2.31208,-0.83097 -0.25673,0 -1.49447,-0.57418 -2.75053,-1.27594 -4.68072,-2.61515 -10.44846,-9.9096 -11.43713,-14.46452 -0.90734,-4.1802 -1.43573,-6.18189 -1.93522,-7.33117 -0.41572,-0.95651 -0.48677,-2.69552 -0.27262,-6.67162 0.15931,-2.95785 0.44336,-5.57766 0.63123,-5.82182 0.18787,-0.24416 0.67997,-1.70531 1.09355,-3.24701 1.38304,-5.15556 3.58606,-8.94631 7.33066,-12.61393 1.87677,-1.83818 3.70321,-3.34215 4.05876,-3.34215 0.35554,0 0.64645,-0.15817 0.64645,-0.35149 0,-0.37291 3.72936,-1.7114 8.07072,-2.89663 1.43964,-0.39303 2.81384,-0.86383 3.05378,-1.04622 0.23994,-0.18238 1.22152,-0.45343 2.18128,-0.60232 0.95976,-0.1489 2.51954,-0.48607 3.46618,-0.74927 1.54016,-0.42823 1.63192,-0.5266 0.87251,-0.93542 -3.40402,-1.83249 -8.22096,-5.33919 -10.26904,-7.4758 -6.88733,-7.18504 -8.24794,-8.69205 -8.24794,-9.13538 0,-0.2657 -0.27947,-0.63829 -0.62104,-0.82796 -0.34157,-0.18968 -1.19812,-1.4122 -1.90345,-2.71672 -3.58276,-6.62634 -4.55878,-8.37236 -5.53211,-9.89652 -0.5833,-0.91339 -1.53911,-2.60193 -2.12403,-3.75232 -1.73414,-3.41062 -5.31883,-10.10995 -6.77259,-12.65712 -0.74454,-1.30452 -1.35725,-2.68968 -1.3616,-3.07813 -0.004,-0.38847 -0.64593,-1.65078 -1.42573,-2.80514 -0.77981,-1.15438 -1.73544,-2.77715 -2.12362,-3.60617 -0.38818,-0.82902 -1.34917,-2.86574 -2.13555,-4.52603 -1.57042,-3.31569 -2.59689,-6.45536 -2.9264,-8.95104 -0.11763,-0.89093 -0.38945,-1.72714 -0.60404,-1.85825 -0.51352,-0.31372 -0.50046,-2.58546 0.0203,-3.53547 0.22577,-0.41185 0.70786,-2.31105 1.07128,-4.22044 0.36344,-1.90939 0.96277,-4.04405 1.33184,-4.7437 0.36907,-0.69965 0.67225,-1.42592 0.67373,-1.61393 0.001,-0.18801 0.78795,-1.39261 1.74771,-2.67687 0.95976,-1.28426 1.74502,-2.50243 1.74502,-2.70706 0,-0.78011 3.20801,-4.03023 5.00627,-5.07198 1.03358,-0.59876 1.97968,-1.46833 2.10244,-1.93237 0.12276,-0.46404 0.71873,-1.02996 1.32438,-1.25758 0.60565,-0.22762 2.6838,-1.39432 4.61812,-2.59266 1.93432,-1.19834 3.61938,-2.17881 3.74459,-2.17881 0.12521,0 1.05986,-0.37483 2.07699,-0.83297 3.33046,-1.50009 8.54485,-2.66161 13.09123,-2.91612 3.79384,-0.21237 5.38312,-0.0707 10.57176,0.94248 3.35867,0.65585 6.32104,1.35989 6.58306,1.56454 0.26202,0.20466 0.60557,0.24441 0.76345,0.0883 0.68091,-0.6731 0.17222,-2.07722 -1.38688,-3.82811 -1.84989,-2.07745 -4.32399,-6.36617 -5.21139,-9.03364 -0.31561,-0.94874 -0.7464,-2.1131 -0.95729,-2.58747 -0.2109,-0.47437 -0.51001,-1.61858 -0.66471,-2.54271 -0.15469,-0.92411 -0.54377,-2.08848 -0.86462,-2.58747 -0.48516,-0.75452 -0.48893,-2.2866 -0.0224,-9.10091 0.30855,-4.50652 0.70475,-8.58178 0.88044,-9.05615 0.17568,-0.47437 0.69081,-1.68513 1.14473,-2.69059 0.45392,-1.00544 0.82531,-1.9996 0.82531,-2.20922 0,-0.76098 1.75158,-4.27173 2.39433,-4.79904 0.3627,-0.29756 0.65946,-1.09945 0.65946,-1.78195 0,-0.81556 0.22431,-1.24094 0.65438,-1.24094 0.35991,0 0.65438,-0.18246 0.65438,-0.40547 0,-0.89185 4.69685,-6.49503 8.45192,-10.08285 3.87971,-3.7069 5.22648,-4.55494 10.74331,-6.76491 1.31967,-0.52864 4.26439,-1.83486 6.54383,-2.90271 2.27943,-1.06786 5.12881,-2.40331 6.33196,-2.96768 1.20314,-0.56436 2.34273,-1.02611 2.5324,-1.02611 0.29861,0 2.16195,-0.75755 5.31393,-2.16041 0.92856,-0.41327 6.12054,-2.09279 9.37949,-3.03411 1.07975,-0.31186 2.15949,-0.70074 2.39942,-0.86416 0.54016,-0.36789 6.00155,-1.97358 8.07073,-2.37286 0.83979,-0.16204 2.30711,-0.66339 3.26071,-1.11409 1.91713,-0.90611 4.46152,-1.28088 9.39069,-1.38321 l 3.27191,-0.0679 -0.13702,-1.9406 c -0.16021,-2.26932 0.68194,-9.46765 1.1838,-10.11847 0.18961,-0.24587 0.58792,-1.41734 0.88515,-2.60327 0.5525,-2.20441 2.61673,-7.58951 3.05815,-7.97803 0.13474,-0.1186 0.78437,-1.23214 1.44362,-2.47455 0.65925,-1.24241 1.86013,-3.11558 2.66862,-4.16261 0.8085,-1.04702 1.59798,-2.40775 1.7544,-3.02383 0.1908,-0.75148 0.5795,-1.12015 1.181,-1.12015 0.49312,0 2.01082,-1.0388 3.37267,-2.30846 1.36184,-1.26965 3.85027,-3.06471 5.52986,-3.98902 l 3.05379,-1.68056 6.98008,0.004 c 6.65665,0.004 17.68312,1.14844 18.75898,1.94804 0.23993,0.17834 2.20309,0.54711 4.36255,0.81949 6.05869,0.76422 13.80781,2.22746 15.36313,2.90096 0.77163,0.33415 2.63662,0.70858 4.14442,0.83208 1.5078,0.1235 3.38149,0.5157 4.16375,0.87156 0.78226,0.35586 2.64726,0.85546 4.14442,1.11023 1.49718,0.25478 2.92663,0.62305 3.17655,0.8184 0.24993,0.19534 2.80202,0.75679 5.67133,1.24767 9.47218,1.62052 13.75451,2.99467 17.69669,5.67867 0.62545,0.42583 2.78491,1.61504 4.79881,2.64269 5.4019,2.75646 8.74113,4.66444 10.12988,5.78803 0.67824,0.54875 1.42813,0.99773 1.66641,0.99773 0.23829,0 1.25388,0.55035 2.25688,1.223 2.30136,1.54341 4.31203,2.51772 5.85459,2.83697 1.06651,0.22073 1.64664,-0.1907 5.07748,-3.60104 2.13036,-2.11763 4.48613,-4.09462 5.23506,-4.3933 0.74892,-0.29868 1.5203,-0.79993 1.71418,-1.11387 0.19388,-0.31394 1.5047,-1.14575 2.91294,-1.84847 1.40824,-0.7027 2.67399,-1.45927 2.81276,-1.68124 0.13878,-0.22197 1.08558,-0.78355 2.104,-1.24796 1.01841,-0.46441 3.14979,-1.44453 4.73639,-2.17804 5.45424,-2.52159 11.34878,-3.63163 18.05552,-3.40015 6.00367,0.20721 9.67677,1.29355 11.46102,3.38965 0.5774,0.67833 1.26776,1.23331 1.53413,1.23331 0.26636,0 1.88251,1.42772 3.59144,3.17273 1.70892,1.74499 3.33382,3.24896 3.61086,3.34215 0.82602,0.27783 7.01797,6.44888 9.1368,9.10595 1.08236,1.35731 2.34105,2.58491 2.79709,2.72799 0.45605,0.14308 1.15495,0.77909 1.55311,1.41337 0.39817,0.63426 1.16904,1.63836 1.71304,2.23132 0.54401,0.59297 1.93076,2.10068 3.08168,3.35049 1.1509,1.2498 2.85829,3.28743 3.79418,4.52807 0.93589,1.24064 2.43257,2.84881 3.32596,3.5737 2.45751,1.99403 5.39329,5.79028 6.07138,7.85088 0.3326,1.01074 1.30876,2.64612 2.16923,3.63417 2.18216,2.50574 4.23224,5.42973 5.24346,7.47866 0.47181,0.95599 1.48406,2.5927 2.24943,3.63713 0.76536,1.04443 1.88083,2.95535 2.4788,4.24649 0.97462,2.10442 3.09079,5.56696 5.36315,8.77537 0.44693,0.63104 1.42039,2.25785 2.16324,3.61514 0.74285,1.35729 1.90285,3.16971 2.57777,4.0276 0.67493,0.8579 1.5957,2.23547 2.04614,3.06127 0.45045,0.82581 1.06439,1.76146 1.36432,2.07923 0.29992,0.31776 0.54532,0.78713 0.54532,1.04302 0,0.45699 1.58413,4.04224 2.91118,6.58867 2.33571,4.48191 2.90849,5.37668 3.55997,5.56118 0.39989,0.11323 2.4939,0.3381 4.65336,0.4997 4.8971,0.36645 13.38859,2.08986 15.70518,3.18748 0.95977,0.45474 2.36606,1.08968 3.12508,1.41098 2.26333,0.95807 7.91323,5.80906 8.8026,7.55788 0.45313,0.89104 0.96202,2.37168 1.13084,3.29033 0.16883,0.91864 0.48127,1.98597 0.69433,2.37184 1.18729,2.15033 2.47506,23.23754 2.88709,47.27608 0.26144,15.25294 0.43558,16.9201 1.71657,16.43418 0.71246,-0.27025 1.12419,0.79219 0.53334,1.37625 -0.25043,0.24756 -0.72422,0.3481 -1.05287,0.22343 -0.32865,-0.12466 -0.68409,0.0361 -0.78987,0.35714 -0.10577,0.32108 -0.28636,4.7561 -0.4013,9.85557 -0.11494,5.09947 -0.411,9.85396 -0.65791,10.56551 -0.96917,2.79296 -1.4001,5.91719 -0.89857,6.51456 0.5808,0.69179 0.14349,5.23253 -0.69775,7.24488 -0.30674,0.73378 -0.88516,3.46881 -1.28537,6.07784 -1.10581,7.20904 -2.87226,15.90631 -3.32396,16.36576 -0.22151,0.22533 -0.40276,0.99843 -0.40276,1.71801 0,1.60629 -2.45601,12.04732 -3.25281,13.82838 -0.31832,0.71156 -1.01977,3.04028 -1.55875,5.17495 -0.53899,2.13466 -1.31352,4.65745 -1.72118,5.60619 -1.0764,2.50507 -2.22609,5.79512 -2.6811,7.67246 -0.21796,0.89927 -0.75981,2.45175 -1.20412,3.44996 -0.4443,0.99822 -1.33872,3.17336 -1.98758,4.83366 -0.64885,1.66029 -1.75488,4.11066 -2.45782,5.44527 -0.70295,1.33461 -1.27808,2.70724 -1.27808,3.05028 0,0.89217 -4.61313,9.9648 -6.75362,13.28233 -0.99471,1.5417 -1.93006,3.12425 -2.07854,3.51679 -0.1485,0.39253 -1.7066,1.40421 -3.46245,2.24818 -3.2114,1.54361 -3.66926,1.62543 -12.13569,2.16868 -3.71325,0.23827 -18.262,-0.90657 -19.00066,-1.49515 -0.25291,-0.20153 -1.33265,-0.42272 -2.39941,-0.49155 l -1.93957,-0.12514 0.14406,2.19565 c 0.19642,2.99374 -1.81266,6.81833 -6.55494,12.47837 -5.01192,5.98183 -12.76684,12.99883 -15.52212,14.04511 -0.54602,0.20734 -1.11065,0.68069 -1.25475,1.05188 -0.1441,0.37119 -1.33543,1.35368 -2.64742,2.18331 -1.31198,0.82963 -4.33996,3.10014 -6.72883,5.04558 -2.38887,1.94544 -5.58233,4.41043 -7.09658,5.47776 -3.5202,2.48125 -9.194,6.74304 -9.93643,7.46359 -0.92103,0.89391 -5.4244,4.18004 -5.72839,4.18004 -0.15287,0 -1.80371,1.17641 -3.66852,2.61426 -5.38722,4.15375 -11.44137,8.59811 -11.71245,8.59811 -0.13684,0 -1.62874,1.06734 -3.31533,2.37185 -1.6866,1.30452 -3.29187,2.36333 -3.56726,2.35292 -0.27539,-0.0104 -1.28598,-0.31425 -2.24574,-0.67521 z m 1.96315,-4.20257 c 0,-0.79774 -13.66452,-13.87673 -13.86788,-13.27364 -0.0892,0.26456 0.24616,0.9942 0.74527,1.62143 1.08523,1.3638 1.16668,2.86248 0.20711,3.81102 -0.72167,0.71339 -1.17023,0.66363 -4.09845,-0.45463 -1.50628,-0.57524 -1.51231,-0.57309 -0.44657,0.15946 0.59418,0.40842 1.67391,1.25013 2.39941,1.87045 0.72549,0.62033 2.49696,1.6731 3.9366,2.3395 1.43965,0.6664 3.13496,1.58589 3.76737,2.04331 1.2106,0.87565 5.29616,2.38572 6.59369,2.43712 0.4199,0.0166 0.76345,-0.23267 0.76345,-0.55402 z m 7.02641,-2.13949 c 2.58623,-1.92942 6.73031,-4.60742 7.12975,-4.60742 0.17811,0 1.43383,-0.8802 2.79051,-1.95599 4.21247,-3.34034 6.84009,-5.24703 8.16897,-5.92763 0.70279,-0.35995 1.83458,-1.16538 2.5151,-1.78984 0.68052,-0.62446 2.34919,-1.94136 3.70817,-2.92646 2.1299,-1.54392 5.66021,-4.30833 7.31501,-5.728 0.27647,-0.23719 1.62679,-1.30452 3.00073,-2.37186 1.37393,-1.06733 3.03387,-2.42575 3.68876,-3.01871 0.65489,-0.59296 1.71199,-1.35233 2.34909,-1.68747 2.58125,-1.35787 24.72586,-23.80538 24.72586,-25.06408 0,-0.18789 0.6871,-1.37295 1.52689,-2.63347 2.40495,-3.60978 1.79584,-6.40834 -1.39477,-6.40834 -2.36965,0 -8.01725,-1.28727 -10.38412,-2.36689 -1.1997,-0.54722 -3.06469,-1.38138 -4.14443,-1.85368 -3.30593,-1.44609 -4.74603,-2.99888 -5.23912,-5.64912 -0.2377,-1.2776 -0.43219,-3.54635 -0.43219,-5.04168 0,-1.49533 -0.17578,-2.82618 -0.39063,-2.95744 -0.44609,-0.27252 -0.83029,-4.43213 -1.15773,-12.53399 -0.27789,-6.87608 -0.48412,-10.30973 -1.21734,-20.26852 -0.34486,-4.68391 -0.54018,-13.88874 -0.49249,-23.20987 0.0868,-16.96564 -0.003,-17.40948 -2.15975,-10.64289 -0.6425,2.01608 -1.64946,4.38916 -2.23768,5.27351 -0.58821,0.88436 -1.06948,1.82834 -1.06948,2.09774 0,0.2694 -0.92469,2.02647 -2.05487,3.90461 -1.33937,2.22579 -2.28876,3.3708 -2.72659,3.28843 -1.03233,-0.19422 -1.05436,-1.91429 -0.0515,-4.02318 0.49869,-1.04874 0.90671,-2.01889 0.90671,-2.1559 0,-0.137 0.4755,-0.86684 1.05667,-1.62186 0.58117,-0.75503 1.19152,-1.9069 1.35632,-2.55972 0.1648,-0.65282 0.67088,-1.90672 1.12461,-2.78647 0.45372,-0.87973 0.82495,-1.82513 0.82495,-2.1009 0,-0.27574 0.51594,-1.41388 1.14655,-2.52919 0.9919,-1.75433 1.07322,-2.16324 0.60293,-3.03191 -0.62106,-1.14712 -0.29529,-1.94882 0.79188,-1.94882 1.30171,0 3.74937,-4.5887 4.02912,-7.55354 0.19337,-2.0493 0.49119,-2.83779 1.41784,-3.75379 1.37944,-1.36361 1.60483,-3.35501 0.37971,-3.35501 -0.43633,0 -1.81968,0.3013 -3.07413,0.66955 -2.5564,0.75045 -3.98513,0.51892 -3.98513,-0.6458 0,-1.1592 0.85339,-1.65931 3.40168,-1.99346 1.25906,-0.16511 2.39456,-0.46867 2.5233,-0.6746 0.12875,-0.20592 0.96651,-0.3744 1.8617,-0.3744 2.74766,0 9.11822,-1.86038 10.89908,-3.18283 0.45795,-0.34007 0.28356,-0.68843 -0.82257,-1.64309 -0.77205,-0.66633 -1.82821,-1.21152 -2.34701,-1.21152 -0.76657,0 -5.66541,0.97914 -12.35978,2.47037 -0.54341,0.12105 -1.09486,0.39098 -1.22545,0.59984 -0.13058,0.20886 -0.99033,0.37975 -1.91056,0.37975 -1.24421,0 -2.02049,-0.32074 -3.02804,-1.25113 -0.7452,-0.68812 -1.3549,-1.56402 -1.3549,-1.94646 0,-0.38242 -0.2454,-1.10616 -0.54532,-1.6083 -0.43626,-0.73039 -0.43626,-0.95203 0,-1.1082 0.29992,-0.10737 0.54532,-0.58066 0.54532,-1.05176 0,-0.64161 0.24632,-0.82196 0.98157,-0.71874 0.72668,0.10202 1.01992,0.47376 1.12924,1.43153 0.0812,0.71156 0.35065,1.53632 0.59873,1.8328 0.51386,0.61408 5.17367,0.74706 5.81924,0.16608 0.22795,-0.20515 1.69049,-0.60645 3.25011,-0.89179 4.22059,-0.77216 6.15799,-1.40917 6.01617,-1.9781 -0.0697,-0.27961 -1.89357,-2.4149 -4.05303,-4.74506 -7.73671,-8.34827 -12.43327,-13.92828 -12.43327,-14.77201 0,-0.25049 -0.14723,-0.52012 -0.32719,-0.59918 -0.24154,-0.10612 -4.71051,-5.41506 -6.0805,-7.22336 -0.0749,-0.0988 -0.26072,-0.0565 -0.41299,0.094 -0.27787,0.27469 0.13499,1.49489 1.68483,4.97935 0.45867,1.0312 0.72659,2.15145 0.59539,2.48944 -0.34731,0.89466 -1.48057,1.2028 -2.21316,0.60178 -0.9088,-0.74557 -2.71797,-4.0641 -3.06354,-5.61938 -0.16168,-0.72773 -1.16001,-3.00088 -2.21849,-5.05144 -1.05848,-2.05057 -1.92452,-3.92418 -1.92452,-4.16358 0,-0.53161 -1.93887,-3.4228 -3.58655,-5.34815 -0.66674,-0.77911 -1.21225,-1.58175 -1.21225,-1.78365 0,-0.71796 -3.72601,-5.91732 -7.09858,-9.90549 -2.89182,-3.41967 -3.40338,-4.25812 -3.28894,-5.39057 0.11663,-1.15412 -0.0165,-1.35746 -0.95512,-1.45899 -1.72353,-0.18641 -4.91496,-1.04015 -6.10757,-1.63383 -0.59985,-0.2986 -2.46484,-0.9731 -4.14442,-1.49888 -1.67959,-0.52578 -3.83905,-1.3601 -4.79881,-1.85405 -2.38795,-1.22897 -4.60495,-1.99657 -5.78905,-2.00432 -1.30693,-0.009 -4.46295,-1.99923 -4.46295,-2.815 0,-0.47349 0.51809,-0.64146 1.97851,-0.64146 1.82089,0 1.94252,-0.0664 1.52689,-0.83415 -0.24838,-0.45877 -0.45161,-1.22356 -0.45161,-1.69952 0,-0.47597 -0.16173,-0.9642 -0.3594,-1.08497 -0.19767,-0.12075 -2.99515,-0.4617 -6.21664,-0.75765 -3.54381,-0.32556 -6.08492,-0.75987 -6.43371,-1.09961 -0.31707,-0.30885 -0.95776,-0.56154 -1.42374,-0.56154 -0.46601,0 -1.18817,-0.18895 -1.60481,-0.4199 -0.41664,-0.23095 -1.7391,-0.69914 -2.9388,-1.04043 -3.42688,-0.97488 -6.49099,-2.15585 -7.12031,-2.74431 -0.31706,-0.29648 -0.85279,-0.53905 -1.19051,-0.53905 -0.77577,0 -7.0321,-2.06014 -8.485,-2.79401 -0.59986,-0.30299 -1.58143,-0.7372 -2.18128,-0.96493 -0.59985,-0.22771 -2.75932,-1.21492 -4.79881,-2.19377 -2.03949,-0.97886 -4.19895,-1.91021 -4.79881,-2.06966 -1.19174,-0.31678 -6.90585,-2.82753 -8.85427,-3.89051 -0.6709,-0.36602 -2.43773,-1.01146 -3.9263,-1.43432 -2.51229,-0.71367 -5.19338,-1.98364 -9.7995,-4.64182 -1.02188,-0.58973 -2.43631,-1.1118 -3.14318,-1.16018 -0.70686,-0.0484 -1.63761,-0.40192 -2.06833,-0.78567 -0.43072,-0.38374 -1.27391,-0.81892 -1.87377,-0.96706 -0.59984,-0.14815 -3.15194,-1.29748 -5.67131,-2.55405 -3.95028,-1.97028 -4.84002,-2.62025 -6.46507,-4.72287 -2.88206,-3.72904 -3.44054,-3.69512 -7.55933,0.45912 -3.2795,3.30772 -3.42581,3.5405 -3.42581,5.45029 0,2.56331 -1.09627,5.04386 -2.73891,6.19743 -2.55062,1.79123 -3.42397,0.0324 -1.01996,-2.05414 0.8119,-0.70467 1.57878,-1.66904 1.70417,-2.14304 0.46242,-1.74797 -1.25078,-0.81075 -5.06257,2.76952 -3.74865,3.52097 -3.83794,3.65086 -3.55055,5.16517 0.2925,1.54124 0.28298,1.55336 -1.21923,1.55336 -1.13345,0 -1.99551,0.41696 -3.42953,1.65876 -1.05353,0.91232 -2.40629,1.77409 -3.00614,1.91505 -1.74835,0.41085 -4.86925,1.20709 -6.85021,1.7477 -1.45363,0.3967 -3.0401,1.66125 -7.66106,6.10649 -7.66109,7.36977 -10.76513,10.13427 -11.37903,10.13428 -0.27673,10e-6 -1.05137,0.67922 -1.72143,1.50936 -0.67008,0.83014 -1.41539,1.50934 -1.65626,1.50934 -0.24088,0 -1.85211,0.65791 -3.58051,1.46201 -1.72841,0.80411 -4.32044,1.80062 -5.76008,2.21448 -6.66295,1.91543 -20.06574,0.88602 -25.64343,-1.96957 -0.90716,-0.46443 -1.85182,-0.84443 -2.09922,-0.84443 -0.68291,0 -5.33348,-2.23892 -5.98923,-2.88339 -0.31706,-0.31161 -0.76954,-0.56657 -1.00551,-0.56657 -0.94268,0 -6.01694,-3.79005 -9.05726,-6.765 -1.7726,-1.7345 -3.47633,-3.15364 -3.78606,-3.15364 -1.27217,0 -2.03556,1.40044 -1.81548,3.33051 0.17167,1.50565 0.55087,2.17434 1.90191,3.35392 0.92812,0.81033 1.89833,1.48141 2.15602,1.49128 0.25768,0.01 1.43495,0.69716 2.61613,1.52731 1.18118,0.83015 2.32423,1.50936 2.5401,1.50936 0.21587,0 1.39439,0.64805 2.61893,1.44011 2.39583,1.54968 4.80834,2.86403 7.24337,3.9462 0.83979,0.37322 2.31215,1.12441 3.27191,1.66931 0.95976,0.5449 2.30216,1.12889 2.98312,1.29775 0.68095,0.16886 1.70639,0.73626 2.27875,1.26089 0.57236,0.52463 4.03967,2.48096 7.70513,4.34741 3.66547,1.86644 6.76264,3.51537 6.88261,3.66427 0.38123,0.47319 3.58915,1.82587 3.8107,1.60687 0.4286,-0.42368 2.29802,2.25596 2.03911,2.9229 -0.14478,0.37297 0.0503,0.98807 0.43352,1.36688 0.65484,0.64732 0.92489,1.98191 0.76563,3.7837 -0.0506,0.57207 0.18313,0.74735 0.86243,0.64687 0.68206,-0.1009 1.10838,-0.68683 1.59068,-2.18626 0.47384,-1.4731 0.8861,-2.04841 1.46786,-2.04841 0.44493,0 0.80896,-0.17524 0.80896,-0.38944 0,-0.21418 0.93249,-1.27262 2.07221,-2.35207 8.11577,-7.68664 10.41766,-9.76299 10.82433,-9.76375 0.25481,-4.3e-4 0.89871,-0.58304 1.4309,-1.29459 0.53219,-0.71155 1.22675,-1.29374 1.54347,-1.29374 0.31674,0 1.39869,-0.5892 2.40436,-1.30933 1.89287,-1.35544 6.62805,-3.86421 7.29962,-3.86746 0.21026,-7e-4 1.26571,-0.58727 2.34543,-1.3028 1.07974,-0.71552 3.04288,-1.61138 4.36256,-1.99081 1.31967,-0.37943 2.62765,-0.87019 2.90661,-1.09059 0.61808,-0.48831 8.06463,-2.84174 10.18104,-3.21763 0.8398,-0.14916 1.72321,-0.41314 1.96315,-0.58664 0.23994,-0.17348 1.31967,-0.43768 2.39941,-0.58709 1.07973,-0.1494 3.9263,-0.54632 6.32569,-0.88202 5.24326,-0.7336 13.96418,-1.31253 18.75898,-1.24532 10.33138,0.14482 16.25916,0.44586 17.23208,0.87513 0.59985,0.26466 3.02136,0.67889 5.38114,0.92052 2.35978,0.24162 4.51924,0.62125 4.79881,0.84361 0.27957,0.22236 1.8825,0.63061 3.56209,0.90723 3.6283,0.59757 5.48897,1.74086 4.75205,2.91989 -0.60198,0.96312 -1.74854,1.20839 -2.9553,0.63218 -0.50833,-0.24271 -1.51318,-0.55436 -2.23301,-0.69255 -9.21058,-1.76824 -13.97651,-2.44977 -18.54084,-2.65137 -2.99926,-0.13247 -5.63969,-0.42146 -5.86763,-0.6422 -0.52131,-0.50483 -15.81076,-0.53391 -16.12539,-0.0307 -0.12746,0.20388 -1.75865,0.49904 -3.62485,0.65593 -7.69091,0.64655 -16.87845,2.39357 -19.7168,3.74916 -0.95631,0.45673 -2.31862,0.83043 -3.02736,0.83043 -0.70873,0 -2.04334,0.37039 -2.96579,0.82309 -0.92246,0.45271 -2.65876,1.25696 -3.85846,1.78722 -1.1997,0.53028 -3.21491,1.42013 -4.47823,1.97746 -2.57476,1.13588 -7.68545,4.18448 -9.10215,5.42957 -0.51094,0.44904 -1.53517,1.1442 -2.27606,1.54479 -4.02275,2.17506 -14.67072,12.68399 -16.64457,16.42723 -0.59986,1.13757 -1.30616,2.34002 -1.56957,2.67211 -1.38823,1.75019 -5.43718,10.55115 -5.73373,12.46305 -0.12876,0.83015 -0.38052,1.70342 -0.55945,1.94061 -0.17894,0.23718 -0.46081,1.11046 -0.62639,1.9406 -0.16556,0.83015 -0.5603,2.09154 -0.87717,2.80309 -1.47847,3.31991 -2.60767,17.09117 -1.97912,24.13633 0.4311,4.83199 1.62055,11.05377 2.18732,11.44141 0.17339,0.1186 0.54687,1.54288 0.82995,3.16507 0.52795,3.02548 1.68887,6.24812 4.29711,11.92852 1.50598,3.27983 1.9225,4.12062 3.95222,7.97804 1.13116,2.14975 4.12521,6.64549 6.60556,9.91864 0.71895,0.94874 1.48979,2.1277 1.71298,2.61992 0.2232,0.49221 0.91451,1.22441 1.53624,1.62711 0.62174,0.40269 1.13042,0.94712 1.13042,1.20982 0,1.58661 14.45711,15.55708 18.38415,17.76534 1.32903,0.74733 3.51687,2.29982 4.86188,3.44995 3.05683,2.61395 7.7319,5.88688 8.40884,5.88688 0.28069,0 1.01371,0.3914 1.62893,0.86977 0.61522,0.47837 3.43917,2.05 6.27547,3.4925 2.83629,1.4425 5.45137,2.86206 5.81127,3.15455 0.35991,0.2925 2.32307,0.97133 4.36256,1.5085 2.03949,0.53718 3.90448,1.11857 4.14442,1.29199 0.66526,0.48081 4.08156,1.577 6.76196,2.16971 2.87558,0.63585 5.28577,1.37504 5.90672,1.81153 0.59433,0.41777 5.76554,1.42571 11.76161,2.29252 2.63935,0.38155 5.19144,0.87265 5.67132,1.09135 1.12164,0.51116 10.86392,1.29334 16.05614,1.2891 4.92804,-0.004 11.20782,-0.68476 11.81023,-1.28025 0.24563,-0.2428 1.37392,-0.44146 2.50733,-0.44146 1.13341,0 3.00822,-0.18728 4.16624,-0.41617 1.15802,-0.2289 3.08707,-0.60477 4.28677,-0.83528 3.75033,-0.72057 6.52658,-1.42259 6.98008,-1.765 0.4333,-0.32716 3.54785,-1.27186 7.98913,-2.42327 1.2748,-0.3305 3.1781,-0.98831 4.22956,-1.46179 1.05146,-0.4735 2.08937,-0.86091 2.30647,-0.86091 0.2171,0 1.20775,-0.58218 2.20144,-1.29373 0.99368,-0.71156 1.91965,-1.29374 2.05771,-1.29374 0.13806,0 0.89446,-0.48515 1.68091,-1.07811 0.78644,-0.59296 1.65205,-1.07812 1.92356,-1.07812 2.23886,0 17.19881,-13.48642 20.41835,-18.40718 0.80445,-1.22952 1.66066,-2.35647 1.90269,-2.50434 0.85345,-0.5214 6.06426,-9.64825 6.56473,-11.49826 0.27885,-1.03081 0.69358,-2.09943 0.92162,-2.37468 0.52297,-0.63125 2.275,-7.1659 2.98762,-11.14316 0.29749,-1.66029 0.64202,-3.3098 0.76563,-3.66558 0.54312,-1.56324 0.64048,-3.30404 0.63909,-11.428 -0.001,-8.89323 -0.29559,-10.91884 -2.48867,-17.14203 -0.35523,-1.00802 -0.64873,-2.06959 -0.65223,-2.35904 -0.003,-0.28946 -0.49713,-1.58693 -1.09699,-2.88327 -0.59985,-1.29635 -1.09064,-2.58775 -1.09064,-2.86977 0,-0.72374 -2.30423,-5.76556 -2.71441,-5.9393 -0.18665,-0.0791 -0.33937,-0.32259 -0.33937,-0.54117 0,-0.21858 -0.49079,-1.40309 -1.09064,-2.63225 -0.59985,-1.22915 -1.09064,-2.453 -1.09064,-2.71966 0,-0.26667 -0.41868,-0.92908 -0.93039,-1.47203 -0.51172,-0.54296 -1.39133,-1.84414 -1.95469,-2.89152 -0.56337,-1.04737 -1.81336,-2.96016 -2.77778,-4.25065 -0.96441,-1.29048 -1.75347,-2.54421 -1.75347,-2.78605 0,-0.24185 -0.47939,-0.75021 -1.06529,-1.12971 -0.58591,-0.37949 -1.42025,-1.35116 -1.85408,-2.15929 -1.6642,-3.09991 -12.83979,-14.40472 -14.24993,-14.41469 -0.44534,-0.003 -1.19577,-0.49088 -1.66762,-1.08384 -0.47184,-0.59296 -1.10278,-1.07811 -1.40209,-1.07811 -0.2993,0 -1.31571,-0.63523 -2.25867,-1.41161 -0.94297,-0.77639 -2.41411,-1.92307 -3.26921,-2.54817 -0.8551,-0.62511 -3.21088,-2.71451 -5.23506,-4.64312 -2.02419,-1.92861 -4.12205,-3.61684 -4.66191,-3.75164 -0.53987,-0.13479 -0.98158,-0.39672 -0.98158,-0.58208 0,-0.18535 -0.9325,-0.76984 -2.07221,-1.29886 -1.13972,-0.52903 -2.85747,-1.5164 -3.81724,-2.19416 -0.95976,-0.67776 -2.96554,-1.72073 -4.45728,-2.31769 -1.49176,-0.59698 -3.35675,-1.47383 -4.14443,-1.94856 -0.78769,-0.47474 -1.82478,-0.86674 -2.30466,-0.87112 -0.47989,-0.004 -1.3633,-0.2816 -1.96315,-0.61603 -0.59985,-0.33442 -1.92498,-0.99986 -2.94472,-1.47875 -1.01975,-0.47888 -1.85409,-0.99139 -1.85409,-1.13892 0,-0.82045 1.02082,-1.9365 1.77127,-1.9365 1.34067,0 5.68494,1.61872 6.23996,2.32508 0.50117,0.63784 5.64874,2.84986 6.63186,2.84986 0.29287,0 0.6455,0.2911 0.78361,0.64687 0.13811,0.35578 0.57665,0.64687 0.97454,0.64687 0.64367,0 2.27112,0.84241 9.16437,4.7437 2.61806,1.48171 6.10204,3.88749 8.6835,5.99619 1.18921,0.97142 2.32568,1.76622 2.52549,1.76622 1.79894,0 23.86487,22.0268 23.86487,23.82254 0,0.23272 0.75502,1.32333 1.67782,2.42358 3.04811,3.63424 7.14122,10.18093 9.4742,15.15343 2.22259,4.7372 2.82726,6.22987 4.14903,10.24207 0.93468,2.83717 1.67663,4.42027 2.07167,4.42027 0.4137,0 0.55012,0.33788 0.41614,1.0307 -0.10963,0.56688 0.0687,2.556 0.3962,4.42026 1.26025,7.17311 1.48858,9.19035 1.72594,15.24881 0.33094,8.4466 -0.86763,19.05815 -2.49566,22.09547 -0.48447,0.90382 -0.52601,2.05428 -0.0742,2.05426 0.17995,0 0.87543,-0.67922 1.54548,-1.50936 1.40761,-1.74388 1.83842,-1.85013 2.50553,-0.61794 0.5134,0.94829 0.50279,0.97068 -2.07447,4.37799 -0.6672,0.88209 -2.1047,2.8227 -3.19443,4.31245 l -1.98133,2.70865 0.23631,3.22741 0.23631,3.22741 4.36255,2.08414 c 2.3994,1.14628 5.34695,2.55633 6.55009,3.13346 1.20315,0.57712 2.42414,1.04931 2.71333,1.04931 0.54059,0 3.39853,1.47489 4.36955,2.25499 0.83456,0.67045 0.64888,1.96685 -0.32548,2.27255 -0.99593,0.31246 -3.35174,-0.42023 -5.89115,-1.83226 -0.95976,-0.53367 -2.43212,-1.28149 -3.27192,-1.66184 -4.21605,-1.90947 -5.22012,-2.32718 -5.59396,-2.32718 -0.22372,0 -0.6762,-0.32262 -1.00551,-0.71695 -0.32931,-0.39432 -1.41202,-1.07341 -2.40603,-1.50907 -1.88225,-0.82498 -2.33713,-1.44776 -2.33713,-3.19981 0,-0.57356 -0.19732,-1.04284 -0.43848,-1.04284 -0.44312,0 -4.77781,5.55369 -4.79,6.13703 -0.003,0.17336 0.53328,0.42412 1.19312,0.55722 3.34942,0.67564 8.20123,2.06475 9.0103,2.5797 0.50298,0.32014 1.79792,0.91941 2.87765,1.33171 4.78691,1.82792 13.23496,8.21423 13.00077,9.82792 -0.23464,1.61675 -1.53745,1.23222 -5.5773,-1.64614 -6.39962,-4.55969 -15.62374,-8.8688 -18.9846,-8.8688 -0.4056,0 -1.32024,-0.41023 -2.03255,-0.91161 l -1.29511,-0.9116 -1.06257,0.98678 c -0.58443,0.54272 -1.06259,1.12767 -1.06259,1.29987 0,0.4917 -7.71534,8.16146 -8.20996,8.16146 -0.24334,0 -0.50787,0.15273 -0.58785,0.33941 -0.14368,0.33535 -1.3533,1.28174 -6.03487,4.72157 -1.31967,0.96965 -3.4848,2.2513 -4.81141,2.84811 -2.40794,1.08329 -7.50382,5.58778 -8.34062,7.37269 -1.01969,2.17498 -1.78166,3.28487 -2.52528,3.67827 -0.44022,0.2329 -1.23265,1.25327 -1.76098,2.26751 -0.52831,1.01424 -1.51256,2.42625 -2.1872,3.1378 -2.00654,2.11631 -5.67731,6.79414 -5.67731,7.23485 0,0.38445 -1.96453,3.17102 -5.39967,7.65906 -0.82364,1.07611 -1.90737,2.72562 -2.40827,3.66559 -0.5009,0.93997 -1.9891,3.26151 -3.3071,5.15899 -1.31801,1.89748 -2.91706,4.5173 -3.55346,5.82182 -0.6364,1.30451 -1.49482,2.75996 -1.90763,3.23434 -0.4128,0.47436 -1.3182,1.92982 -2.01201,3.23433 -0.6938,1.30452 -1.35962,2.46888 -1.47959,2.58747 -0.41768,0.41289 -1.30877,2.14728 -1.30877,2.54736 0,0.22156 0.63803,0.53431 1.41783,0.695 1.46961,0.30283 3.4853,1.15319 7.96166,3.35881 1.43964,0.70935 3.05771,1.50339 3.5957,1.76455 0.53799,0.26115 0.97971,0.61538 0.98158,0.78718 0.002,0.17179 0.62571,0.63047 1.38631,1.01928 0.76059,0.3888 3.81471,2.52845 6.78693,4.75477 2.97221,2.22632 5.58743,4.04785 5.8116,4.04785 0.22417,0 0.65278,0.38812 0.95248,0.86249 0.29969,0.47437 0.70791,0.86249 0.90715,0.86249 0.98522,0 11.49539,9.6789 14.34938,13.21446 2.21316,2.74168 2.97428,2.86072 5.6288,0.88036 z m -6.59015,-74.03791 c 0,-0.80499 0.11633,-0.91999 0.5235,-0.51749 0.40717,0.40249 0.40717,0.63249 0,1.03498 -0.40717,0.4025 -0.5235,0.2875 -0.5235,-0.51749 z m -57.36756,-50.52993 c -0.71982,-0.26749 -1.40693,-0.60279 -1.52689,-0.74511 -0.11997,-0.14233 -0.80212,-0.55455 -1.51588,-0.91606 -1.44229,-0.7305 -2.32301,-2.88766 -2.37266,-5.81139 -0.0229,-1.35254 0.30653,-2.14398 1.52608,-3.66559 0.85544,-1.06733 1.98235,-2.0668 2.50423,-2.22105 1.39664,-0.41279 6.40206,-0.4242 6.40206,-0.0146 0,0.19351 0.75974,0.77394 1.68832,1.28983 2.34908,1.3051 2.59078,1.69821 2.91993,4.74907 0.26287,2.4365 0.18289,2.85005 -0.84944,4.39209 -0.6268,0.93629 -1.60597,2.00438 -2.17592,2.37354 -1.35277,0.87619 -4.94099,1.18569 -6.59983,0.56926 z m 3.5991,-3.21629 c 2.32649,-0.61632 0.23132,-3.2946 -2.99939,-3.83416 -2.10801,-0.35205 -2.71995,0.10277 -2.3101,1.71699 0.43886,1.72849 2.96872,2.73727 5.30949,2.11717 z m 1.85409,-6.4125 c -0.2987,-0.35578 -1.03388,-0.64687 -1.63373,-0.64687 -0.91999,0 -1.00566,0.10122 -0.54755,0.64687 0.2987,0.35578 1.03388,0.64687 1.63373,0.64687 0.91999,0 1.00566,-0.10121 0.54755,-0.64687 z m -47.1778,3.06652 c -3.50018,-1.23611 -4.49052,-2.10269 -4.92589,-4.31034 -0.49165,-2.49307 0.22837,-5.73531 1.51084,-6.80334 0.47287,-0.3938 0.85976,-0.92747 0.85976,-1.18593 0,-0.25846 0.35337,-0.46993 0.78526,-0.46993 0.43189,0 0.98625,-0.19868 1.23191,-0.44152 0.7423,-0.73378 3.40989,-0.60599 5.55477,0.2661 1.11232,0.45226 2.02314,0.95901 2.02404,1.12612 6.9e-4,0.16711 0.46964,0.76647 1.04165,1.3319 1.38394,1.36806 1.91347,4.88533 0.99677,6.62084 -0.95544,1.80885 -2.98562,3.56084 -4.68428,4.04241 -1.89028,0.5359 -2.44063,0.51383 -4.39483,-0.17631 z m 4.08639,-3.38996 c 0.73694,-0.56678 2.08342,-4.10023 2.08342,-5.46731 0,-1.10407 -0.62076,-1.24527 -4.13831,-0.9413 l -3.04768,0.26337 -0.28588,1.72498 c -0.15722,0.94874 -0.1178,2.03907 0.0876,2.42296 0.20542,0.38389 0.23346,0.83639 0.0624,1.00556 -0.55622,0.54983 1.34023,1.5308 2.95938,1.5308 0.86805,0 1.89366,-0.24257 2.27914,-0.53906 z m 61.09595,-19.28262 c -2.59195,-1.16309 -3.7176,-3.07278 -3.44082,-5.83742 0.3739,-3.73456 0.42877,-3.85386 2.14173,-4.65688 2.33341,-1.09388 8.68287,-0.62956 9.99009,0.73055 1.94654,2.0253 2.11992,4.2388 0.57611,7.35489 -0.90682,1.83037 -1.32482,2.21381 -2.93108,2.68874 -2.57599,0.76165 -4.17212,0.69114 -6.33603,-0.27988 z m 5.56396,-3.26271 c 1.47344,-1.75499 -2.81031,-4.67069 -5.54094,-3.77138 -1.68962,0.55646 -1.75871,1.60458 -0.2069,3.13859 1.06108,1.04888 1.67364,1.29243 3.25074,1.29243 1.21188,0 2.15173,-0.24827 2.4971,-0.65964 z m 2.60681,-5.85931 c 0,-0.66009 -0.32684,-0.81223 -1.74502,-0.81223 -0.95976,0 -1.89226,0 -2.07221,0 -0.73011,0 -0.2612,1.08517 0.66647,1.54235 1.39393,0.68698 3.15076,0.27986 3.15076,-0.73012 z m -93.76932,-1.75175 c -2.8254,-1.45975 -3.67502,-2.84512 -3.87341,-6.31585 l -0.16665,-2.91536 1.89819,-1.62058 c 2.75186,-2.34939 2.64413,-2.29075 4.7936,-2.60938 1.81873,-0.2696 2.18832,-0.15193 4.67195,1.48754 3.15634,2.08351 3.51231,2.62085 3.61378,5.45498 0.0915,2.55395 -1.5677,5.72341 -3.43817,6.56791 -2.35178,1.06181 -5.38737,1.04187 -7.49929,-0.0492 z m 5.64577,-3.60815 c 0,-0.60374 -0.49255,-1.58461 -1.09455,-2.1797 -0.91441,-0.9039 -1.43495,-1.06037 -3.16285,-0.95069 -1.75802,0.11158 -2.08903,0.27546 -2.20649,1.09239 -0.0844,0.58716 0.28978,1.38416 0.96175,2.04842 0.88507,0.8749 1.5299,1.0873 3.30104,1.0873 2.06749,0 2.2011,-0.0666 2.2011,-1.09772 z m 1.51505,-4.92077 c 0.33441,-0.53487 -1.77185,-1.90446 -2.36837,-1.54003 -0.62738,0.3833 -0.57242,1.40255 0.0899,1.66672 0.92086,0.36731 2.00742,0.30689 2.2785,-0.12669 z m 152.09634,-13.63884 c -1.54207,-1.9379 -1.11402,-4.06116 0.81874,-4.06116 0.88729,0 1.28156,0.25949 1.47427,0.97029 0.46164,1.70287 0.29718,2.75736 -0.54798,3.51344 -0.7824,0.69993 -0.86839,0.6791 -1.74503,-0.42257 z m -93.21248,-0.52072 c -0.49222,-0.16835 -1.62354,-1.10861 -2.51403,-2.08944 -1.21591,-1.33926 -1.73251,-2.38985 -2.07457,-4.21898 -0.48077,-2.57085 -0.25298,-4.12841 0.60508,-4.13729 0.28375,-0.003 0.94144,-0.65502 1.46153,-1.44908 0.80186,-1.22427 1.29927,-1.49841 3.27191,-1.80326 3.22374,-0.49818 3.56433,-0.41833 6.43515,1.50882 2.42786,1.62979 2.54666,1.7958 2.74493,3.83554 0.31894,3.28115 -0.0534,4.6596 -1.77724,6.57913 -1.50518,1.67607 -1.73184,1.77467 -4.42215,1.92364 -1.55962,0.0864 -3.23839,0.0193 -3.73061,-0.14908 z m 5.04646,-3.4594 c 1.44024,-1.15285 0.81558,-2.53544 -1.60987,-3.56316 -1.07778,-0.45669 -2.3199,-0.83034 -2.76026,-0.83034 -3.18773,0 -2.79745,2.78421 0.65487,4.67169 1.28674,0.7035 2.61289,0.6042 3.71526,-0.27819 z m 1.30167,-6.08942 c 0,-0.54571 -1.61971,-1.019 -2.22394,-0.64986 -0.34237,0.20917 -0.31118,0.40732 0.10516,0.6681 0.79106,0.49549 2.11878,0.48406 2.11878,-0.0182 z m -48.3841,2.93026 c -3.42946,-0.99602 -5.27528,-3.41736 -5.27528,-6.92005 0,-2.8781 3.07132,-6.53636 5.94648,-7.08288 2.48333,-0.47204 3.09495,-0.3454 4.78971,0.99183 3.96501,3.12854 4.09649,3.32231 4.09649,6.0373 0,4.08524 -2.2294,6.61162 -6.3257,7.1684 -0.95977,0.13045 -2.41403,0.0429 -3.2317,-0.1946 z m 4.67444,-4.31917 c 0.15622,-1.33438 -0.98776,-2.30457 -3.51313,-2.97943 -2.06281,-0.55124 -3.3828,0.0566 -3.3828,1.5577 0,1.56152 2.27576,2.83402 4.7988,2.68326 1.76399,-0.1054 1.97675,-0.23338 2.09713,-1.26153 z m 1.7202,-4.99483 c 0.23054,-0.69208 -1.7982,-1.60399 -2.75825,-1.23981 -0.68933,0.26148 -0.6853,0.34279 0.0572,1.15378 0.84799,0.92627 2.40467,0.97585 2.70108,0.086 z m 127.03239,8.63468 c -1.62198,-1.99184 -2.37804,-5.18815 -1.5431,-6.52361 0.41373,-0.66173 1.79092,-0.63861 2.32133,0.039 0.68388,0.87361 1.51388,4.388 1.3569,5.74534 -0.17068,1.47581 -1.23522,1.84441 -2.13513,0.73931 z m -181.15562,186.698 c 1.40102,-0.88063 3.04853,-7.16058 3.07894,-11.73618 0.0411,-6.1803 -2.13534,-17.35732 -3.67981,-18.89779 -0.31424,-0.31342 -0.57134,-0.83385 -0.57134,-1.15651 0,-0.70473 -2.69754,-5.97536 -3.16285,-6.17979 -0.17996,-0.0791 -0.32719,-0.35223 -0.32719,-0.60703 0,-0.25481 -0.82605,-1.54855 -1.83568,-2.87498 -5.43857,-7.14512 -7.37963,-8.63663 -11.26397,-8.65526 -3.982,-0.0191 -5.58575,2.65045 -5.97509,9.94596 -0.25076,4.69855 0.49752,13.54553 1.22087,14.43463 0.20403,0.25078 0.65178,1.51217 0.99501,2.8031 0.34323,1.29093 0.86582,2.92932 1.16131,3.64087 0.29549,0.71156 0.73188,1.77889 0.96975,2.37185 0.23787,0.59296 0.59959,1.36921 0.80381,1.72498 1.7844,3.10857 3.34052,5.60771 4.18741,6.72501 0.55631,0.73394 1.01147,1.47462 1.01147,1.64595 0,0.58718 2.28449,3.27267 2.78399,3.27267 0.27454,0 0.69295,0.42515 0.9298,0.94478 0.67792,1.48729 3.97532,2.91125 6.75634,2.91767 1.31967,0.003 2.63242,-0.14092 2.91723,-0.31993 z m -10.22891,-13.31134 c -1.35261,-0.65909 -4.46722,-4.30455 -4.46722,-5.22859 0,-0.23933 -0.26235,-0.53467 -0.58299,-0.6563 -1.06495,-0.40396 -3.02415,-7.13561 -3.24231,-11.14021 -0.33113,-6.07873 1.10729,-8.57518 4.57085,-7.93287 1.21874,0.226 2.25726,0.96163 4.17779,2.95925 1.40573,1.46217 2.84225,3.19407 3.19227,3.8487 0.77409,1.44773 2.34111,6.30286 2.34889,7.27758 0.003,0.38796 0.29902,1.26123 0.65761,1.94061 0.67971,1.28774 0.50582,5.12552 -0.26991,5.95735 -0.21014,0.22532 -0.38207,0.74491 -0.38207,1.15462 0,1.02661 -2.05622,2.53461 -3.43981,2.5227 -0.62747,-0.006 -1.78088,-0.32167 -2.5631,-0.70284 z m 3.78592,-3.01985 c 0.99246,-0.68717 1.02106,-0.86013 0.76643,-4.63589 -0.28777,-4.26717 -1.12203,-7.19701 -2.52895,-8.88141 -0.72976,-0.87368 -0.84248,-0.91456 -0.59446,-0.21562 0.16833,0.47437 0.50148,1.5417 0.74035,2.37185 0.23886,0.83014 0.63662,1.75477 0.8839,2.05472 0.24728,0.29994 0.54735,1.89576 0.66681,3.54628 0.16901,2.33493 0.057,3.24275 -0.50502,4.09054 -0.78187,1.1796 -2.33367,1.43951 -3.28692,0.55054 -0.4665,-0.43505 -0.53982,-0.41424 -0.37999,0.1078 0.19701,0.64348 1.90333,1.7065 2.75867,1.71863 0.24654,0.004 0.91216,-0.31485 1.47918,-0.70744 z m -6.47108,-4.50635 c -0.22989,-0.56809 -0.43042,-0.80621 -0.44563,-0.52912 -0.0369,0.67301 0.47125,1.94988 0.68999,1.73365 0.0955,-0.0944 -0.0145,-0.63642 -0.24436,-1.20453 z m 4.13317,-1.57196 c -0.51518,-3.62133 -2.47669,-8.7785 -3.48194,-9.15473 -0.49852,-0.18657 -1.06913,-0.24404 -1.26804,-0.12772 -0.87888,0.51397 1.00049,7.83269 2.66049,10.36056 0.35044,0.53366 1.02951,0.9703 1.50904,0.9703 0.79019,0 0.84457,-0.1919 0.58045,-2.04841 z m -5.36411,-1.94061 c -0.37258,-1.24522 -0.92411,-2.84622 -1.22561,-3.55777 -0.3015,-0.71156 -0.64294,-1.68186 -0.75875,-2.15623 -0.17224,-0.70554 -0.21782,-0.6663 -0.2505,0.21562 -0.0634,1.71077 0.72022,4.54191 1.72134,6.2192 0.50661,0.84877 0.98182,1.54322 1.05603,1.54322 0.0742,0 -0.16992,-1.01882 -0.54251,-2.26404 z m 35.43994,23.12282 c 4.79881,-0.60349 8.92142,-1.24941 9.16136,-1.43538 0.23994,-0.18597 1.90862,-0.47546 3.70817,-0.64331 4.51349,-0.421 15.23271,-2.45838 17.23208,-3.27527 0.47988,-0.19606 1.95224,-0.5436 3.27192,-0.77232 1.31967,-0.22872 4.36255,-0.91795 6.76195,-1.53164 2.3994,-0.61369 4.79268,-1.11809 5.31838,-1.12089 0.5257,-0.003 1.0634,-0.17716 1.19488,-0.38746 0.13148,-0.21029 0.9774,-0.51286 1.87983,-0.67237 2.72078,-0.4809 10.30526,-2.37841 11.23839,-2.81164 0.47988,-0.2228 3.53426,-1.08987 6.78751,-1.92682 5.51826,-1.41966 8.69955,-2.5667 8.69955,-3.13671 0,-0.13299 -0.21963,-0.96648 -0.48809,-1.85219 -0.53873,-1.77749 -0.59972,-1.62029 3.76442,-9.70206 1.15271,-2.13467 2.65978,-4.94855 3.34905,-6.25306 1.48966,-2.81934 3.86117,-6.5837 4.81798,-7.64767 0.37669,-0.41889 0.97033,-1.44082 1.31919,-2.27097 0.34887,-0.83015 1.36271,-2.44931 2.253,-3.59813 0.89029,-1.14883 2.03867,-2.89537 2.55196,-3.88121 0.51327,-0.98584 2.12015,-3.3026 3.57082,-5.14836 1.45067,-1.84576 3.05031,-3.91811 3.55478,-4.60523 0.50445,-0.68711 1.73141,-2.16368 2.72659,-3.28127 0.99517,-1.11759 1.8094,-2.26328 1.8094,-2.54596 0,-0.28269 0.78526,-1.13779 1.74502,-1.90022 0.95976,-0.76242 1.74502,-1.60904 1.74502,-1.88136 0,-0.27233 0.53678,-1.04899 1.19286,-1.72592 l 1.19285,-1.23078 -1.9563,0.30806 c -1.07597,0.16944 -2.93788,0.75929 -4.13758,1.31078 -1.1997,0.5515 -2.54424,1.00462 -2.98786,1.00693 -0.44361,0.002 -1.42519,0.28352 -2.18127,0.62489 -5.37795,2.42813 -18.7985,3.9143 -32.1843,3.56403 -11.78546,-0.30839 -28.1833,-2.06934 -31.13864,-3.34395 -0.47988,-0.20697 -2.05039,-0.68646 -3.49003,-1.06554 -3.4003,-0.89535 -7.35299,-2.23913 -9.81575,-3.33702 -3.27812,-1.46139 -6.12708,-1.21132 -10.30695,0.9047 -1.94974,0.98704 -3.85222,1.79461 -4.22773,1.79461 -0.37552,0 -0.79064,0.17256 -0.92251,0.38347 -0.13186,0.21092 -0.78147,0.51713 -1.44357,0.68047 -0.66211,0.16335 -1.4983,0.55034 -1.85821,0.85998 -0.35991,0.30964 -1.83228,0.89505 -3.27191,1.3009 -1.43965,0.40585 -2.81385,0.88688 -3.05379,1.06893 -0.23994,0.18206 -0.98662,0.46111 -1.65929,0.62011 -0.67268,0.15901 -2.00917,0.85203 -2.96999,1.54005 -0.96082,0.68802 -2.3736,1.38253 -3.13951,1.54335 -0.76591,0.16082 -1.69696,0.55693 -2.06898,0.88025 -0.37204,0.32332 -2.11351,1.17366 -3.86993,1.88963 -1.75644,0.71598 -3.80783,1.66185 -4.55865,2.10193 -0.75082,0.44009 -2.54302,1.2535 -3.98266,1.80757 -1.43965,0.55408 -3.20648,1.43219 -3.9263,1.95137 -0.71983,0.51917 -2.2642,1.46246 -3.43196,2.0962 -1.98102,1.07511 -3.33,2.09966 -3.33,2.52915 0,0.10117 1.12881,0.96813 2.50847,1.92657 2.76177,1.91861 5.18374,4.35917 7.59581,7.65411 1.88028,2.56852 6.19267,10.67583 6.65216,12.50611 0.17864,0.71156 0.58874,1.87592 0.91134,2.58748 1.76297,3.88858 2.90132,10.45986 2.95934,17.08315 0.0405,4.61405 -0.0903,5.69403 -0.96004,7.92907 -0.55376,1.42311 -1.27604,2.80073 -1.60507,3.06136 -0.32903,0.26064 -0.45405,0.62189 -0.27782,0.80279 0.46253,0.4748 7.72729,-0.0703 17.77061,-1.33329 z m 60.07234,-17.49507 c -0.76563,-0.75684 -0.64042,-1.83171 0.31272,-2.68438 0.6671,-0.59679 1.02,-0.65084 1.74501,-0.26728 1.00147,0.52981 1.14599,1.36277 0.4572,2.63501 -0.50896,0.94011 -1.72886,1.0937 -2.51493,0.31665 z m 6.30292,-0.1188 c -0.29062,-0.74865 0.59862,-3.01166 1.78344,-4.53865 4.15292,-5.35225 4.05762,-23.21638 -0.17234,-32.30398 -1.48832,-3.19752 -1.80316,-5.42218 -0.82013,-5.79508 1.50967,-0.57266 2.18575,0.46172 3.66689,5.61026 0.80771,2.8076 1.63065,5.49285 1.82878,5.96721 0.4694,1.12389 1.1718,6.00139 1.49046,10.34989 0.28869,3.93954 -0.35999,9.8519 -1.22645,11.17839 -0.32206,0.49307 -0.70216,1.47867 -0.84465,2.19022 -0.14251,0.71155 -0.95433,2.7977 -1.80407,4.63589 -1.30651,2.82631 -1.7078,3.34215 -2.59994,3.34215 -0.58024,0 -1.16613,-0.28634 -1.30199,-0.6363 z m -4.01584,-5.2719 c -0.45499,-0.44977 -0.61752,-1.09273 -0.45868,-1.81447 1.682,-7.64236 1.18417,-19.00272 -1.05055,-23.97387 -0.21325,-0.47436 -0.78987,-2.24274 -1.2814,-3.92972 -0.49153,-1.68699 -1.33512,-3.72462 -1.87465,-4.52807 -0.53953,-0.80347 -1.27338,-2.04302 -1.6308,-2.75458 -0.35741,-0.71156 -1.20198,-2.24124 -1.87684,-3.39929 -1.47053,-2.52342 -1.43523,-3.93188 0.0985,-3.93188 1.08318,0 2.52343,1.85567 4.1838,5.39057 1.63965,3.49079 2.62991,5.42949 3.08382,6.03743 0.26563,0.35578 1.03603,2.78153 1.71199,5.39057 0.67596,2.60903 1.3763,4.93836 1.5563,5.17629 0.46498,0.61461 1.27234,8.21995 1.26843,11.94871 -0.002,1.72894 -0.20185,4.40492 -0.44452,5.94662 -0.68607,4.35868 -1.81941,5.89087 -3.28543,4.44169 z m 43.43247,22.68639 c 0,-0.25939 -0.38613,-0.57143 -0.85807,-0.69343 -0.47193,-0.12199 -0.97074,-0.57276 -1.10846,-1.0017 -0.13772,-0.42893 -0.812,-0.9734 -1.4984,-1.20993 -0.68639,-0.23654 -2.00349,-1.08432 -2.92689,-1.88398 -3.14079,-2.7199 -7.2686,-5.0985 -8.81814,-5.08132 -1.29837,0.0144 5.47951,5.90072 8.52855,7.40671 1.58779,0.78426 3.49527,1.7562 4.23883,2.15988 1.58059,0.8581 2.44258,0.9653 2.44258,0.30377 z m -16.94379,-13.32823 c 0.4758,0 1.68532,0.465 2.68781,1.03333 1.00248,0.56834 2.31348,1.16268 2.91334,1.32077 l 1.09064,0.28743 -1.09064,-0.89521 c -0.59986,-0.49237 -2.33474,-1.49283 -3.8553,-2.22325 -1.52057,-0.73042 -3.58188,-1.85825 -4.58069,-2.50629 -3.04698,-1.97693 -7.71057,-3.63031 -7.70258,-2.73078 0.007,0.78513 1.93876,3.11585 4.61992,5.57399 l 2.9047,2.66307 1.07384,-1.26153 c 0.59062,-0.69384 1.46314,-1.26153 1.93896,-1.26153 z M 562.7305,447.78584 c 3.21239,-0.45141 4.84379,-0.89806 5.78038,-1.58255 0.71767,-0.52451 1.30485,-1.09205 1.30485,-1.2612 0,-0.87312 -5.11292,-3.00541 -10.88138,-4.53795 -1.30592,-0.34695 -2.62081,-0.83297 -2.92198,-1.08004 -0.30116,-0.24708 -1.58846,-0.62234 -2.86065,-0.83392 -1.2722,-0.21158 -3.78545,-0.67118 -5.585,-1.02132 -1.79955,-0.35014 -6.85466,-0.77378 -11.23357,-0.94142 -4.37891,-0.16764 -7.96165,-0.46892 -7.96165,-0.66952 0,-0.49002 -2.43858,-0.46525 -3.3869,0.0344 -0.41664,0.21952 -3.01085,0.61827 -5.76491,0.88611 -5.28787,0.51426 -7.10843,1.06932 -7.33584,2.2366 -0.18599,0.95469 1.43807,2.38718 3.36208,2.96547 0.86064,0.25868 2.2519,0.82068 3.09169,1.24889 1.59683,0.8142 5.4453,1.77305 10.79732,2.69014 1.73957,0.29808 3.16285,0.68202 3.16285,0.85321 0,1.31749 22.85274,2.07826 30.43271,1.0131 z m -25.41578,-2.01107 c -4.78429,-0.46555 -8.46636,-1.48424 -9.48854,-2.62511 -0.4199,-0.46865 -0.76345,-1.50533 -0.76345,-2.30373 0,-2.09029 1.21101,-2.70721 5.6843,-2.8957 4.41895,-0.18622 12.24345,0.43 12.83066,1.01047 0.23018,0.22754 0.80702,0.41371 1.28187,0.41371 1.06686,0 3.48103,0.74357 5.50597,1.69585 1.30805,0.61515 1.52689,0.93055 1.52689,2.20058 0,1.21824 -0.23329,1.59601 -1.30876,2.11922 -1.5678,0.76273 -9.36525,0.95919 -15.26894,0.38471 z m 14.13281,-2.05099 c 0.93002,-0.58213 0.22825,-1.8475 -0.93414,-1.68433 -1.25497,0.17615 -1.68597,2.08218 -0.46854,2.07205 0.43658,-0.004 1.06779,-0.17811 1.40268,-0.38772 z m -7.58898,-1.72559 c -1.38257,-0.53917 -7.63447,-0.93888 -7.63447,-0.48809 0,0.44915 2.00849,0.71624 5.88945,0.78319 1.68346,0.029 2.30618,-0.0763 1.74502,-0.2951 z m -11.66707,-0.57537 c -0.20488,-0.61697 -2.94748,-1.01022 -2.94748,-0.42263 0,0.67797 0.54699,0.96169 1.85409,0.96169 0.82256,0 1.20913,-0.19058 1.09339,-0.53906 z m -230.23643,1.48265 c 0,-0.19258 -0.58894,-0.78057 -1.30876,-1.30665 -1.89496,-1.38491 -1.52969,-3.41134 0.74346,-4.12453 0.52703,-0.16535 1.35132,-0.92131 1.83174,-1.67992 0.48044,-0.75861 1.43216,-1.74268 2.11495,-2.18683 0.68279,-0.44415 1.67953,-1.55999 2.21496,-2.47966 0.53545,-0.91967 1.16399,-1.67212 1.39677,-1.67212 0.23277,0 0.42322,-0.21102 0.42322,-0.46895 0,-0.25793 0.98158,-1.94697 2.18128,-3.75343 1.46981,-2.21318 2.18127,-3.73416 2.18127,-4.66317 0,-0.75828 0.48888,-2.41678 1.08638,-3.68555 0.59751,-1.26877 1.08829,-2.56529 1.09064,-2.88115 0.002,-0.31586 0.69136,-1.40318 1.53115,-2.41627 2.00832,-2.42273 2.04059,-4.0186 0.10983,-5.42968 -2.91151,-2.12786 -9.2849,-7.89204 -11.66081,-10.54619 -0.84517,-0.94414 -1.85115,-2.01147 -2.23552,-2.37185 -1.56193,-1.46445 -5.1906,-5.92985 -5.1906,-6.38751 0,-0.26974 -0.38267,-0.69288 -0.85039,-0.94032 -0.46771,-0.24743 -1.10573,-0.91066 -1.41782,-1.47383 -0.3121,-0.56318 -1.46708,-2.35668 -2.56663,-3.98555 -1.09956,-1.62889 -2.3756,-3.64082 -2.83566,-4.47097 -0.46006,-0.83014 -0.93463,-1.60638 -1.0546,-1.72497 -0.11997,-0.1186 -0.6525,-1.0889 -1.18342,-2.15623 -0.53092,-1.06733 -1.45373,-2.81388 -2.05073,-3.88121 -1.13297,-2.02562 -2.4308,-5.32103 -3.39671,-8.62491 -0.5493,-1.87887 -0.62735,-1.94487 -2.45367,-2.07476 -1.03749,-0.0738 -2.11721,0.0473 -2.39941,0.26897 -0.28219,0.22171 -2.18175,0.5401 -4.22124,0.70754 -2.0395,0.16742 -6.55474,0.6838 -10.03388,1.1475 -3.47913,0.46371 -7.89621,1.04492 -9.81574,1.29157 -1.91951,0.24667 -3.88266,0.61707 -4.36255,0.82312 -0.47988,0.20606 -1.65777,0.47443 -2.61753,0.59638 -6.17787,0.78497 -17.59265,2.56872 -18.32271,2.86323 -1.07256,0.43268 -4.53009,1.1554 -7.31264,1.52854 -1.14267,0.15323 -2.17519,0.43473 -2.2945,0.62556 -0.26391,0.42212 1.867,2.141 2.65423,2.141 0.98925,0 7.79894,7.03345 8.76804,9.05615 1.76805,3.69031 2.2403,4.96732 2.5516,6.89992 0.17193,1.06733 0.53579,2.21314 0.80859,2.54625 0.72348,0.88342 0.67951,14.04793 -0.0493,14.76831 -0.29992,0.29645 -0.54532,0.94586 -0.54532,1.44314 0,1.43776 -2.69296,7.53034 -4.53993,10.27117 -2.32384,3.4485 -6.23141,6.77972 -9.235,7.87283 -2.4333,0.88559 -2.44472,0.89797 -1.42814,1.54782 0.92327,0.59021 11.28229,3.38127 12.54957,3.38127 0.28605,0 1.39654,0.39469 2.46776,0.87708 1.95778,0.88163 2.53853,1.02755 9.3471,2.34849 2.03949,0.39568 4.03687,0.89161 4.43862,1.10207 0.40175,0.21045 2.07043,0.60184 3.70817,0.86977 1.63774,0.26791 4.45007,0.84298 6.24963,1.27791 1.79955,0.43494 4.1223,0.9222 5.16165,1.08281 1.03936,0.16061 2.41356,0.56217 3.05379,0.89236 0.64022,0.3302 1.67411,0.60155 2.29753,0.60301 0.62341,0.001 2.97919,0.40035 5.23506,0.88642 2.25587,0.48608 4.88683,0.99744 5.8466,1.13636 0.95976,0.13892 1.94133,0.39544 2.18127,0.57004 0.64497,0.46935 6.54449,1.63851 9.93087,1.9681 1.62294,0.15796 3.05781,0.45836 3.1886,0.66756 0.13079,0.2092 0.76609,0.38323 1.41176,0.38673 0.64568,0.004 1.66474,0.27556 2.2646,0.60458 1.1913,0.65344 4.36255,0.89525 4.36255,0.33265 z m 8.09492,-1.54784 c 0.47999,-0.33234 2.43774,-1.38606 4.35055,-2.3416 1.91282,-0.95554 4.08164,-2.38166 4.81959,-3.16914 2.01845,-2.15393 4.11145,-4.94508 4.11145,-5.48288 0,-0.26235 0.19631,-0.477 0.43626,-0.477 0.23993,0 0.43628,-0.24258 0.43631,-0.53906 3e-5,-0.29648 0.98724,-2.0621 2.19379,-3.9236 2.55082,-3.93547 4.45632,-8.16992 4.26537,-9.47864 -0.0734,-0.50329 -0.58259,-1.13552 -1.13145,-1.40494 -0.54886,-0.26943 -1.43228,-0.88073 -1.96314,-1.35845 -2.85068,-2.56528 -4.58045,-2.47529 -6.84453,0.35609 -0.96533,1.20723 -1.75516,2.42934 -1.75516,2.71582 0,0.4388 -1.12459,2.76702 -3.35628,6.94847 -0.25318,0.47438 -0.91447,1.73577 -1.46954,2.8031 -0.55508,1.06733 -1.62258,2.81388 -2.37225,3.88121 -0.74966,1.06733 -1.49192,2.28021 -1.64947,2.69528 -0.15754,0.41507 -0.58707,0.75468 -0.95451,0.75468 -0.36744,0 -0.66808,0.17628 -0.66808,0.39172 0,0.21545 -1.21869,1.58526 -2.70821,3.04403 -2.23051,2.18448 -2.62695,2.78097 -2.24751,3.38167 1.08138,1.71205 4.78325,2.3966 6.50681,1.20324 z m 262.78789,-0.53202 c 0.49729,-0.62495 0.90417,-1.46898 0.90417,-1.87562 0,-0.40663 0.6871,-2.01924 1.52689,-3.58357 0.8398,-1.56432 1.5269,-3.11293 1.5269,-3.44134 0,-0.32841 0.88341,-2.12951 1.96315,-4.00243 1.07973,-1.87292 1.96315,-3.80856 1.96315,-4.30139 0,-0.49285 0.46698,-1.85596 1.03776,-3.02916 0.57077,-1.1732 1.66574,-3.97667 2.43328,-6.22993 0.76755,-2.25325 1.67476,-4.70833 2.01603,-5.45573 0.34128,-0.7474 0.6205,-1.66526 0.6205,-2.03969 0,-0.37443 0.27356,-1.41243 0.60791,-2.30668 0.33435,-0.89424 0.9503,-2.79025 1.36877,-4.21337 0.41847,-1.4231 0.88922,-2.78153 1.04612,-3.01871 0.49762,-0.75229 1.21348,-3.29766 2.42568,-8.62491 0.64764,-2.84621 1.35355,-5.56306 1.56867,-6.03743 0.21512,-0.47437 0.67993,-2.60903 1.0329,-4.7437 0.96251,-5.82093 1.97993,-10.69935 2.38698,-11.44534 0.19934,-0.36532 0.49594,-1.9178 0.65911,-3.44997 0.16316,-1.53216 0.69373,-5.19131 1.17904,-8.13145 0.8395,-5.086 0.84649,-5.43858 0.14381,-7.25738 -0.61475,-1.59123 -1.25072,-2.23619 -3.79405,-3.8477 -1.87508,-1.1881 -4.51053,-2.35859 -6.8218,-3.0298 -2.07146,-0.60158 -4.26216,-1.34985 -4.86822,-1.66283 -0.60607,-0.31298 -2.76553,-0.88577 -4.79881,-1.27287 -2.03328,-0.38709 -4.63904,-0.88696 -5.79056,-1.11082 -3.59508,-0.69888 -6.01864,-0.49637 -8.09378,0.6763 -1.04423,0.5901 -2.14657,1.07292 -2.44963,1.07292 -0.30306,0 -1.04501,0.38411 -1.64879,0.85358 -0.60377,0.46948 -2.93695,1.46074 -5.18483,2.20282 -2.24788,0.74206 -4.28338,1.4712 -4.52332,1.62031 -0.40152,0.24949 -1.96571,0.70653 -8.50698,2.48562 -1.31967,0.35892 -4.01019,0.96155 -5.97893,1.33918 -3.35189,0.64292 -3.7077,0.6382 -5.59453,-0.0741 -1.10823,-0.41838 -2.10882,-1.00245 -2.22352,-1.29792 -0.2203,-0.5675 -2.90831,-3.70593 -5.29211,-6.17888 -1.57249,-1.63131 -2.12024,-1.63682 -5.62931,-0.0566 -1.01491,0.45703 -2.07828,0.83097 -2.36305,0.83097 -1.51551,0 -5.59659,3.45096 -5.6239,4.75556 -0.008,0.3623 -0.28275,1.04151 -0.6115,1.50936 -0.33555,0.47755 -0.73609,2.69476 -0.91322,5.05527 -0.17353,2.31255 -0.4935,4.20464 -0.71105,4.20464 -0.22791,0 -0.39554,5.57439 -0.39554,13.15298 0,9.9426 0.12778,13.15298 0.5235,13.15298 0.40717,0 0.40717,0.115 0,0.51749 -0.60631,0.59935 -0.70961,3.63037 -0.13568,3.981 0.2133,0.13031 0.51455,4.45961 0.66944,9.62066 0.1549,5.16104 0.46716,12.10057 0.69393,15.42115 0.75745,11.09158 0.9359,14.63121 0.96436,19.12891 l 0.0283,4.46656 1.35468,-0.23979 c 0.74508,-0.13188 2.82705,-0.5683 4.6266,-0.9698 4.03417,-0.9001 19.71712,-1.04624 26.39344,-0.24597 6.32662,0.75837 10.25895,1.45644 10.51547,1.86674 0.12336,0.19729 0.6544,0.36101 1.1801,0.36381 1.78999,0.01 10.70307,2.36942 11.21102,2.96831 0.36753,0.4333 5.41189,2.99816 5.96366,3.03227 0.2825,0.0175 0.92053,-0.47956 1.41782,-1.10451 z m -246.07134,-7.72462 c 2.79493,-2.32476 8.77575,-14.8576 7.09024,-14.8576 -0.24778,0 -0.83007,0.84822 -1.29399,1.88495 -0.46392,1.03672 -1.06205,2.01848 -1.32918,2.18167 -0.26714,0.16321 -0.48569,0.57978 -0.48569,0.92571 0,0.34595 -1.00756,2.22658 -2.23903,4.1792 -2.54611,4.03711 -3.86855,6.28714 -3.86855,6.58204 0,0.49823 0.91214,0.11386 2.1262,-0.89597 z m 10.19379,-4.24701 c 2.06687,-1.04254 4.73073,-2.21492 5.91967,-2.60528 1.18895,-0.39037 2.49013,-1.06848 2.89151,-1.50692 0.69638,-0.76064 0.60226,-0.85858 -2.05537,-2.13841 -1.53185,-0.73769 -2.92485,-1.34127 -3.09556,-1.34127 -0.17071,0 -0.8772,-0.41426 -1.56999,-0.92057 -1.62377,-1.18672 -2.47324,-0.83014 -3.04788,1.27938 -0.25424,0.93332 -0.75531,1.93738 -1.1135,2.23123 -0.35819,0.29386 -0.65126,0.77785 -0.65126,1.07555 0,0.29769 -0.26211,0.7563 -0.58249,1.01914 -0.32036,0.26283 -0.84258,1.25689 -1.16046,2.20903 -0.31789,0.95213 -0.74286,1.73115 -0.9444,1.73115 -0.20153,0 -0.36643,0.19406 -0.36643,0.43124 0,0.90742 2.15949,0.35998 5.77616,-1.46427 z m -120.72939,-8.43969 c 0.23994,-0.16357 1.38343,-0.6435 2.54108,-1.06651 2.67982,-0.97921 7.37176,-5.61382 8.83938,-8.73137 0.57904,-1.23002 1.05281,-2.38163 1.05281,-2.55913 0,-0.17749 0.37115,-1.11171 0.82479,-2.07604 2.80191,-5.95628 2.85546,-15.45365 0.1237,-21.9395 -1.92017,-4.55892 -2.92559,-6.11986 -5.83707,-9.06213 -2.78823,-2.81772 -3.55025,-3.33397 -6.15579,-4.17042 -2.21526,-0.71116 -3.49477,-0.88309 -5.01694,-0.67414 -2.97044,0.40778 -6.20086,1.61484 -6.67741,2.49507 -0.22743,0.42006 -0.64456,0.76375 -0.92696,0.76375 -0.64177,0 -4.25465,3.46703 -4.25465,4.08289 0,0.24934 -0.34355,0.66575 -0.76344,0.92536 -0.4199,0.2596 -1.03844,1.22807 -1.37453,2.15214 -0.33609,0.92408 -1.03592,2.35935 -1.55518,3.1895 -2.04106,3.26304 -2.96734,12.71075 -1.79196,18.27723 0.39478,1.8696 1.00517,3.80487 1.35642,4.3006 0.35126,0.49573 0.63865,1.26762 0.63865,1.71531 0,2.76446 7.01262,11.07936 9.92395,11.76688 0.66031,0.15593 1.39688,0.43364 1.63682,0.61714 0.97915,0.7488 6.31522,0.74403 7.41633,-0.006 z m -6.76195,-13.00233 c -1.19395,-0.4673 -4.36256,-3.34329 -4.36256,-3.95967 0,-0.21174 -0.36688,-0.90008 -0.81528,-1.52966 -0.44841,-0.62957 -1.1586,-2.5031 -1.57821,-4.1634 -1.07489,-4.25309 -0.71577,-8.59461 0.93762,-11.33531 0.67465,-1.11831 1.42544,-2.40651 1.66844,-2.86266 1.12797,-2.11742 5.51204,-3.29294 8.85638,-2.37469 2.93186,0.80498 6.64177,4.5586 7.42899,7.51651 0.31563,1.18593 0.75716,2.49321 0.98119,2.90506 0.52465,0.96451 0.53203,6.67088 0.009,6.9904 -0.21907,0.13383 -0.5317,1.02383 -0.69474,1.97779 -0.36994,2.16452 -3.06721,5.62562 -5.14289,6.59929 -1.68369,0.78979 -5.55331,0.91528 -7.28798,0.23634 z m 7.41634,-3.39967 c 0,-0.23718 -0.0866,-0.43125 -0.19239,-0.43125 -0.10581,0 -0.31371,0.19407 -0.462,0.43125 -0.14829,0.23718 -0.0617,0.43124 0.19238,0.43124 0.2541,0 0.46201,-0.19406 0.46201,-0.43124 z m -1.1673,-2.57878 c 1.9839,-1.72189 2.83939,-5.36469 2.13685,-9.09901 -0.85336,-4.53605 -2.23697,-6.17135 -5.66362,-6.69394 -1.73098,-0.26398 -1.96017,-0.17674 -3.3428,1.27245 -1.86965,1.95963 -2.53504,4.71165 -2.01632,8.3393 0.89229,6.24018 5.29183,9.30058 8.88589,6.1812 z m -0.71328,-2.50596 c -1.60932,-1.75786 -2.13027,-9.57727 -0.69774,-10.47277 1.19985,-0.75004 1.48811,-0.0729 1.53162,3.59786 0.0242,2.03931 0.29193,4.29961 0.59501,5.0229 0.91473,2.18301 -0.0185,3.39258 -1.42889,1.85201 z m 4.79611,1.12267 c -0.13926,-0.34401 -0.24263,-0.24183 -0.26357,0.26055 -0.0189,0.4546 0.0842,0.70931 0.22913,0.56601 0.14496,-0.1433 0.16047,-0.51525 0.0344,-0.82656 z m 1.40967,-5.30971 c 0.0392,-2.82124 -0.72398,-3.28713 -0.90017,-0.54949 -0.0842,1.30856 -0.0776,2.74375 0.0148,3.18932 0.15947,0.76964 0.18519,0.76703 0.51465,-0.0523 0.19073,-0.47436 0.35758,-1.63873 0.37077,-2.58747 z m 12.08857,-34.43537 c 0.92995,-0.32045 3.06501,-0.71342 4.74459,-0.87327 5.13522,-0.48874 10.8008,-1.64304 12.19778,-2.48516 0.72938,-0.43968 1.62562,-0.80015 1.99166,-0.80104 0.95015,-0.002 9.15804,-4.18005 10.45898,-5.32353 0.59985,-0.52725 2.07221,-1.61304 3.27192,-2.41288 1.19969,-0.79983 2.86837,-2.07578 3.70816,-2.83545 0.8398,-0.75967 1.88909,-1.50699 2.33176,-1.66071 0.44268,-0.15373 0.90092,-0.6426 1.01832,-1.08639 0.1174,-0.44378 0.68771,-1.05777 1.26734,-1.36443 0.57965,-0.30665 1.0539,-0.75809 1.0539,-1.0032 0,-0.24511 0.60264,-1.06028 1.3392,-1.8115 1.16902,-1.19227 1.30145,-1.56479 1.0421,-2.93143 -0.16342,-0.86108 -0.4408,-1.5656 -0.6164,-1.5656 -0.17561,0 -2.26414,1.99485 -4.6412,4.433 -4.31744,4.42841 -8.20319,7.65773 -11.08386,9.21143 -3.28452,1.77152 -3.96053,2.38306 -3.69075,3.33877 0.19846,0.70305 0.15679,0.76821 -0.18092,0.28283 -0.44983,-0.64652 -1.17511,-0.40023 -7.6891,2.61111 -5.94873,2.75002 -21.28205,4.09904 -27.04782,2.37966 -4.00429,-1.19409 -4.58067,-1.28273 -4.58067,-0.70443 0,0.28703 0.39263,0.62339 0.87251,0.74743 0.47987,0.12406 0.87251,0.38016 0.87251,0.56912 0,0.37884 5.80993,3.26291 7.1982,3.57322 1.8019,0.40276 4.52761,0.27556 6.16179,-0.28755 z m 34.40994,-4.60475 c 2.87929,-0.44024 6.71157,-0.92728 8.51619,-1.08229 4.78102,-0.41069 4.89702,-0.55253 3.88176,-4.74664 -0.4567,-1.88673 -0.83815,-4.0126 -0.84766,-4.72415 -0.0168,-1.25528 -0.84423,-2.8031 -1.49854,-2.8031 -0.17721,0 -0.84986,0.53367 -1.49478,1.18593 -2.78218,2.81383 -11.85967,10.02645 -12.61887,10.02645 -0.22656,0 -0.64323,0.27549 -0.92593,0.6122 -0.28268,0.33671 -1.48461,0.95722 -2.67094,1.37893 -1.18633,0.42169 -2.15696,0.94066 -2.15696,1.15325 0,0.41677 1.63798,0.2498 9.81573,-1.00058 z m -31.44188,-1.66215 c 0.13096,-0.20946 1.36951,-0.51884 2.75234,-0.68749 3.85244,-0.46985 7.54448,-1.48596 9.71245,-2.67303 1.07973,-0.5912 2.83642,-1.37043 3.90375,-1.73163 1.06732,-0.36119 2.92969,-1.31517 4.13859,-2.11994 1.2089,-0.80477 2.42839,-1.46322 2.70997,-1.46322 0.60907,0 4.10016,-2.68105 6.85751,-5.26638 1.08471,-1.01704 2.50559,-2.33432 3.1575,-2.92728 2.2379,-2.03553 6.38555,-7.04316 6.93481,-8.37268 0.30228,-0.73169 0.67174,-3.06319 0.82101,-5.18112 0.33292,-4.72322 1.09859,-9.22465 1.62362,-9.54541 0.2151,-0.13142 0.39246,-0.76115 0.39414,-1.39941 0.002,-0.63826 0.52885,-2.61593 1.17151,-4.39482 1.52735,-4.22775 1.60872,-8.84829 0.20624,-11.71218 -0.5195,-1.0608 -0.94454,-2.19431 -0.94454,-2.51891 0,-0.3246 -0.40994,-1.42728 -0.91098,-2.45039 -0.50103,-1.02312 -0.95763,-2.17449 -1.01466,-2.5586 -0.0829,-0.5585 -9.35986,-6.63463 -10.12964,-6.63463 -0.1131,0 -1.84519,-1.06734 -3.84908,-2.37185 -2.00391,-1.30452 -3.77122,-2.37185 -3.92735,-2.37185 -0.15615,0 -1.44024,-0.77624 -2.85355,-1.72498 -1.41332,-0.94874 -2.68701,-1.72499 -2.83044,-1.72499 -0.14344,0 -1.30086,-0.77623 -2.57206,-1.72497 -1.27119,-0.94874 -2.45375,-1.72499 -2.62791,-1.72499 -0.17416,0 -0.94158,-0.46298 -1.70538,-1.02885 -2.13869,-1.58448 -4.97382,-2.87196 -5.70963,-2.59285 -0.58561,0.22214 -0.5884,0.36447 -0.0238,1.21622 1.1704,1.76574 2.01421,5.50202 2.01421,8.91865 0,1.85771 -0.11586,3.56298 -0.25746,3.78946 -0.1416,0.22649 -0.4507,1.41904 -0.68688,2.65012 -0.25609,1.33484 -1.13458,3.30513 -2.17639,4.88127 -0.96082,1.45361 -1.74695,2.86482 -1.74695,3.136 0,0.27118 -0.49079,0.81094 -1.09064,1.19946 -0.59986,0.38852 -1.09064,1.02858 -1.09064,1.42233 0,0.84027 -5.93769,6.59537 -6.80462,6.59537 -0.32538,0 -0.91319,0.48515 -1.30622,1.07811 -0.39303,0.59296 -0.95396,1.07811 -1.2465,1.07811 -0.29254,0 -1.64145,0.76833 -2.99759,1.7074 -1.47492,1.02132 -4.17728,2.26452 -6.72521,3.09389 -2.34273,0.76257 -4.92427,1.6654 -5.73674,2.00629 -3.21216,1.3477 -15.4933,1.12182 -18.32328,-0.33702 -2.42615,-1.25067 -6.59292,-2.8039 -6.59292,-2.4576 0,0.64858 1.86012,4.1807 2.20168,4.1807 0.22871,0 0.41585,0.30113 0.41585,0.66917 0,0.78862 3.06875,6.81201 3.57719,7.02138 0.192,0.0791 0.3491,0.42161 0.3491,0.76121 0,0.3396 0.63803,1.69259 1.41783,3.00663 0.7798,1.31405 2.21988,3.88241 3.20016,5.70747 4.25747,7.92642 5.55449,10.19922 6.75634,11.83927 0.70239,0.95848 1.27707,1.99367 1.27707,2.3004 0,0.30675 0.39095,0.82841 0.86878,1.15925 0.47783,0.33084 1.4673,1.41826 2.19881,2.41649 0.73151,0.99822 1.66568,1.93514 2.07594,2.08204 0.41026,0.1469 1.43302,0.79044 2.27281,1.43009 2.87697,2.19133 7.23442,3.85112 10.14293,3.86352 0.65984,0.003 1.1997,0.19918 1.1997,0.43637 0,0.54115 11.19183,0.59008 11.52924,0.0504 z m 365.03368,-10.25151 c 0.4947,-0.44255 0.79779,-1.31041 0.79779,-2.28433 0,-1.25636 -0.32732,-1.87571 -1.63595,-3.09544 -1.84976,-1.72409 -5.67505,-4.25641 -6.42971,-4.25641 -0.27486,0 -1.62259,-0.56764 -2.99493,-1.26142 -3.08754,-1.5609 -7.61908,-3.03131 -10.31442,-3.34687 -1.70023,-0.19905 -2.31669,-0.055 -3.74497,0.87507 -4.27363,2.78294 -4.21436,2.96333 1.28315,3.90618 2.12597,0.3646 4.08911,0.83464 4.36256,1.04451 0.27345,0.20988 1.87138,0.71285 3.55097,1.11773 4.22212,1.01777 9.03177,3.49113 11.47305,5.90002 2.33095,2.30002 2.55249,2.385 3.65246,1.40096 z m -62.25261,-0.3848 c 1.43331,-0.15476 2.99842,-0.55308 3.47805,-0.88517 0.47963,-0.33208 1.21804,-0.60379 1.6409,-0.60379 0.42286,0 2.48957,-0.50745 4.59267,-1.12766 2.1031,-0.62021 4.26553,-1.22502 4.8054,-1.344 0.53987,-0.119 0.98157,-0.36676 0.98157,-0.55059 0,-0.18381 0.53987,-0.46348 1.1997,-0.62147 1.84305,-0.44129 6.5058,-2.32962 8.58277,-3.47586 1.02511,-0.56575 2.72801,-1.36497 3.78421,-1.77605 1.05621,-0.41109 3.38684,-1.92411 5.17918,-3.36228 3.76962,-3.02472 5.9844,-4.56066 6.57632,-4.56066 0.22928,0 0.41688,-0.27099 0.41688,-0.60219 0,-0.33121 0.67178,-1.18525 1.49284,-1.89787 1.82778,-1.58639 5.05099,-6.53659 5.05099,-7.75732 0,-0.49082 -0.53476,-1.3082 -1.18835,-1.81642 -1.10868,-0.86207 -1.59858,-0.91476 -7.30728,-0.78598 -4.55451,0.10275 -6.5093,0.32035 -7.64581,0.85108 -0.83979,0.39217 -3.19557,1.13487 -5.23507,1.65044 -2.03949,0.51557 -4.49342,1.28333 -5.45319,1.70614 -0.95976,0.4228 -3.30832,1.39736 -5.21902,2.16569 -1.9107,0.76833 -5.11017,2.39654 -7.10991,3.61826 -4.60796,2.81517 -6.46412,3.91119 -8.46378,4.99766 -1.96317,1.06664 -7.79088,6.8428 -9.54488,9.46046 -1.2808,1.91145 -1.61309,3.62743 -0.91358,4.71787 0.83125,1.29583 4.84045,2.71453 6.82088,2.41365 0.47989,-0.0729 2.04522,-0.25919 3.47851,-0.41394 z m 6.48794,-6.85828 c -2.7941,-1.20167 -2.42133,-4.01101 0.97812,-7.37142 1.29476,-1.27988 2.99372,-2.6539 3.77549,-3.05336 0.78176,-0.39947 2.10849,-1.29491 2.94828,-1.98986 0.83979,-0.69495 2.90109,-1.72794 4.58067,-2.29553 1.67959,-0.56759 3.41723,-1.24437 3.86144,-1.50395 1.13238,-0.66171 6.55232,-1.17495 7.77473,-0.73621 1.29118,0.46341 2.51989,2.00186 2.53243,3.17079 0.0167,1.55627 -1.18071,3.35926 -3.57262,5.37949 -4.21383,3.55902 -6.19563,4.77104 -9.8941,6.05095 -1.29356,0.44766 -2.64607,1.05525 -3.0056,1.35019 -1.77435,1.45568 -7.56821,2.03566 -9.97884,0.99891 z m 2.73163,-3.07523 c -0.14564,-0.37518 -0.2648,-1.16287 -0.2648,-1.75043 0,-1.28424 -0.74813,-0.9657 -1.3388,0.57004 -0.50155,1.30403 -0.2092,1.86252 0.97496,1.86252 0.63547,0 0.81699,-0.19696 0.62864,-0.68213 z m 6.20632,-1.94137 c 0.08,-0.21737 0.45201,-0.39522 0.82673,-0.39522 1.05388,0 7.12467,-2.98947 8.95265,-4.4086 2.00901,-1.55967 2.12915,-2.49132 0.32127,-2.49132 -0.72307,0 -1.65557,0.1761 -2.07221,0.39134 -0.41664,0.21524 -2.32804,1.0128 -4.24757,1.77236 -4.94005,1.95479 -5.27209,2.13033 -6.57793,3.47768 -1.64335,1.69559 -1.18445,2.75158 1.02029,2.34776 0.89724,-0.16433 1.69679,-0.47664 1.77677,-0.694 z m 15.10743,-6.97171 c 0.41703,-0.98038 0.4602,-1.56352 0.14365,-1.9406 -0.60518,-0.72088 -1.65447,-0.6867 -1.65447,0.0539 0,0.92557 0.52451,3.28824 0.72998,3.28824 0.10156,0 0.45294,-0.63069 0.78084,-1.40155 z m -42.45793,11.85925 c 0.99825,-2.47456 1.96622,-3.96018 3.92979,-6.03139 2.3258,-2.45329 8.87577,-7.7751 10.22037,-8.30398 0.4979,-0.19583 2.13155,-1.13955 3.63035,-2.09715 1.4988,-0.9576 3.39814,-1.96066 4.22075,-2.22903 0.82261,-0.26837 1.49565,-0.66695 1.49565,-0.88574 0,-0.21879 0.20722,-0.3978 0.46051,-0.3978 0.50017,0 6.45916,-2.42444 10.67982,-4.34514 1.44833,-0.65909 3.11701,-1.29253 3.70816,-1.40765 4.52186,-0.88056 6.39307,-1.35526 6.91787,-1.75498 0.36776,-0.28011 3.0826,-0.4645 6.87096,-0.46668 3.44464,-0.002 6.263,-0.0773 6.26304,-0.16734 9e-5,-0.26927 -1.76636,-7.06247 -2.20814,-8.49177 -0.22514,-0.7284 -0.40934,-1.73105 -0.40934,-2.22811 0,-0.49705 -0.17694,-0.96843 -0.39321,-1.04749 -0.36037,-0.13175 -1.0523,-2.79377 -3.00781,-11.57175 -0.39629,-1.77889 -0.82383,-3.33137 -0.95009,-3.44997 -0.32605,-0.30623 -2.03982,-5.83301 -2.63291,-8.49092 -0.27466,-1.23082 -0.87516,-2.96648 -1.33446,-3.85701 -0.4593,-0.89054 -0.95008,-2.30926 -1.09063,-3.15271 -0.24708,-1.48272 -1.42452,-4.90366 -2.60583,-7.57097 -0.31513,-0.71156 -0.91988,-2.55514 -1.34389,-4.09684 -0.424,-1.5417 -1.32171,-3.82628 -1.99489,-5.07685 -0.67319,-1.25057 -1.22397,-2.56037 -1.22397,-2.91068 0,-0.35031 -0.47559,-1.55881 -1.05685,-2.68557 -0.58128,-1.12674 -1.31458,-2.63081 -1.62957,-3.34237 -0.31498,-0.71156 -1.11545,-2.18847 -1.77881,-3.28204 -0.66335,-1.09356 -1.20609,-2.21536 -1.20609,-2.49288 0,-0.27752 -0.78526,-1.87443 -1.74503,-3.54869 -0.95976,-1.67425 -1.74501,-3.31106 -1.74501,-3.63735 0,-0.32629 -0.55942,-1.2307 -1.24314,-2.00981 -0.68373,-0.7791 -1.51807,-1.99149 -1.85409,-2.69419 -1.18419,-2.47646 -5.98424,-4.545 -12.06264,-5.1983 -1.49963,-0.16117 -2.72659,-0.46805 -2.72659,-0.68195 0,-0.45456 -8.43201,-0.53489 -8.88745,-0.0847 -0.16927,0.16733 -3.29394,0.82475 -6.94373,1.46093 -7.08389,1.23478 -10.03468,1.88851 -11.43478,2.5333 -0.47988,0.22099 -1.75592,0.69636 -2.83566,1.05638 -3.67546,1.22549 -5.21834,1.81607 -5.51774,2.11203 -0.16445,0.16256 -0.6589,0.29555 -1.09879,0.29555 -0.43989,0 -0.7998,0.18499 -0.7998,0.41107 0,0.22608 -0.91201,0.80986 -2.02669,1.29727 -2.96329,1.29576 -9.62295,5.10249 -12.24204,6.99771 -1.24944,0.90411 -2.59295,1.64384 -2.98556,1.64384 -0.39262,0 -0.81653,0.38812 -0.94202,0.86249 -0.1255,0.47437 -0.48861,0.86249 -0.80693,0.86249 -0.31832,0 -0.83529,0.33971 -1.14882,0.75491 -0.31353,0.4152 -1.25717,1.26198 -2.09696,1.88173 -2.30428,1.70054 -5.23506,4.71925 -5.23506,5.39213 0,0.32787 -0.14723,0.59765 -0.32719,0.5995 -0.17995,0.001 -0.55,0.43849 -0.82233,0.97031 -0.27232,0.5318 -1.07318,2.03426 -1.77968,3.33878 -3.82061,7.05457 -3.70764,12.57876 0.41889,20.48415 0.49523,0.94874 1.2774,2.21013 1.73817,2.8031 0.46075,0.59295 1.461,2.09294 2.22277,3.33329 0.76176,1.24035 2.80831,4.18746 4.54788,6.54913 1.73957,2.36166 3.16285,4.48623 3.16285,4.72125 0,0.23503 0.45962,0.78469 1.02136,1.22148 0.56174,0.4368 1.27757,1.26742 1.59072,1.84584 0.81246,1.50064 4.38025,5.98817 8.82557,11.10068 2.1072,2.42349 3.83128,4.57418 3.83128,4.77934 0,0.20516 0.78526,0.99682 1.74502,1.75925 0.95977,0.76242 1.74502,1.60717 1.74502,1.87721 0,0.51184 1.58883,2.47523 6.75091,8.34242 5.36587,6.09885 8.27797,9.66237 8.60064,10.52462 0.17244,0.46079 0.71518,1.08575 1.20609,1.38881 0.49092,0.30306 0.89257,0.72599 0.89257,0.93984 0,0.21386 0.9325,1.47542 2.07221,2.80346 1.13972,1.32804 2.36124,2.75591 2.71449,3.17302 0.9502,1.122 2.14179,0.93265 2.69051,-0.42753 z m 74.70935,-18.1123 c -0.14154,-10.48292 -0.3898,-16.61977 -0.69721,-17.23511 -0.35378,-0.70815 -0.34192,-1.11698 0.0458,-1.57878 0.35619,-0.42425 0.37718,-0.71238 0.0657,-0.90264 -0.27782,-0.16974 -0.46072,-2.34375 -0.46581,-5.53677 -0.0253,-15.86084 -1.90891,-34.95359 -3.82806,-38.80123 -0.75484,-1.51337 -5.0841,-5.48378 -5.97942,-5.48378 -0.26867,0 -1.86514,-0.6704 -3.54769,-1.48977 -2.8725,-1.39887 -5.18958,-1.99241 -12.59364,-3.22593 -1.67958,-0.27982 -3.4998,-0.59941 -4.04494,-0.71022 -1.94269,-0.39485 -1.69216,2.32799 0.63813,6.93528 0.59982,1.18593 1.57395,3.80574 2.16473,5.82181 0.59079,2.01607 1.55365,4.67239 2.1397,5.90293 0.58604,1.23053 1.06553,2.50775 1.06553,2.83827 0,0.77734 1.76672,6.43575 2.18537,6.99926 0.17622,0.23718 0.84393,2.37184 1.48382,4.7437 1.46147,5.41724 1.96303,7.10699 2.43209,8.19366 0.39551,0.91627 1.7721,6.48301 2.66607,10.78113 0.29599,1.42311 0.71101,2.81208 0.92225,3.08662 0.39401,0.51204 0.74912,2.2185 1.87042,8.98825 0.35357,2.13466 0.84365,4.84345 1.08906,6.01953 0.44046,2.11078 0.0335,4.58092 -0.92289,5.60253 -0.21095,0.22532 -0.38355,0.67043 -0.38355,0.98913 0,0.3187 -1.07974,1.6215 -2.39941,2.89511 -1.31967,1.27361 -2.3994,2.51149 -2.3994,2.75082 0,0.23934 0.70607,0.66551 1.56907,0.94705 0.86298,0.28154 2.08995,0.78055 2.72659,1.1089 0.63664,0.32836 1.33845,0.59821 1.55956,0.59966 1.0813,0.007 6.1545,2.36158 8.81867,4.09267 1.64694,1.07013 3.22953,1.94609 3.51685,1.94656 0.40036,7e-4 0.47104,-3.80216 0.30257,-16.27864 z m -393.7471,-11.37917 c 2.39246,-0.27801 4.87696,-0.83807 5.73921,-1.29374 0.83623,-0.44193 1.8321,-0.80351 2.21302,-0.80351 1.04132,0 6.02868,-2.4828 8.322,-4.14284 1.11188,-0.80484 2.19347,-1.46334 2.40353,-1.46334 0.21006,0 0.61966,-0.37629 0.91021,-0.8362 0.29056,-0.45992 1.21352,-1.15763 2.05103,-1.55049 0.92057,-0.43183 1.96803,-1.46542 2.64882,-2.61377 0.61936,-1.0447 1.30343,-1.89947 1.52016,-1.89947 0.21674,0 0.65018,-0.45811 0.96319,-1.01802 0.31301,-0.55991 1.14264,-1.86982 1.84361,-2.91091 3.49203,-5.18643 4.65219,-12.37213 2.90073,-17.96624 -1.56244,-4.99035 -4.35807,-7.86364 -9.87447,-10.14875 -6.08042,-2.51875 -15.81255,-2.67705 -23.47736,-0.38187 -2.37054,0.70984 -4.43185,1.45541 -4.58069,1.65681 -0.14882,0.2014 -1.05585,0.74956 -2.01562,1.21812 -0.95976,0.46856 -2.50185,1.47495 -3.42687,2.23643 -0.92502,0.76148 -2.29922,1.68722 -3.05379,2.05721 -1.85167,0.90794 -2.89882,1.74998 -2.89882,2.33101 0,0.26487 -0.49079,0.79945 -1.09064,1.18798 -0.59985,0.38852 -1.09063,0.9451 -1.09063,1.23684 0,0.29174 -0.41517,0.90012 -0.92259,1.35195 -0.50741,0.45183 -1.1039,1.20964 -1.32552,1.684 -0.22161,0.47437 -1.0825,1.83058 -1.91307,3.01379 -0.88469,1.26028 -1.51015,2.67511 -1.51015,3.41601 0,0.69559 -0.29402,1.58588 -0.65339,1.97841 -1.68611,1.84174 -1.64705,10.27002 0.0589,12.71096 0.32697,0.46785 0.5945,1.20227 0.5945,1.63204 0,0.89317 5.77919,6.7891 6.65466,6.7891 0.31746,0 1.35488,0.41096 2.30538,0.91326 3.88132,2.05106 8.83337,2.52988 16.70466,1.61523 z m -2.00213,-10.31605 c -0.768,-0.89795 -2.47369,-1.80444 -4.46734,-2.37418 -1.6113,-0.46048 -4.77211,-3.16717 -5.07038,-4.3419 -0.1426,-0.56166 -0.40287,-1.02119 -0.57837,-1.02119 -0.1755,0 -0.56059,-1.33578 -0.85574,-2.9684 -0.5445,-3.01184 -0.15343,-6.13187 0.84502,-6.74186 0.23341,-0.14261 0.42827,-0.68446 0.43299,-1.20414 0.0147,-1.61263 4.28621,-6.31848 7.18962,-7.92063 4.42054,-2.43932 4.57004,-2.47732 9.81574,-2.49485 l 5.01694,-0.0168 2.83565,1.96681 c 2.85467,1.98 4.78405,4.6681 4.7943,6.67966 0.003,0.48623 0.23611,1.11301 0.5192,1.39284 0.38302,0.37862 0.39106,0.75923 0.0314,1.4878 -0.26582,0.53845 -0.61165,1.74454 -0.76853,2.68017 -0.46919,2.7983 -2.17036,5.54706 -5.08237,8.2121 -1.51304,1.38473 -3.83196,2.98156 -5.15701,3.55116 -1.32424,0.56926 -2.74859,1.21721 -3.16523,1.4399 -0.41665,0.22269 -1.26036,0.40489 -1.87492,0.40489 -0.6315,0 -1.5569,0.4688 -2.12816,1.07811 -1.22411,1.30568 -1.36889,1.31749 -2.33282,0.19048 z m 1.75759,-4.13893 c -0.29535,-0.11813 -0.8843,-0.12532 -1.30876,-0.016 -0.42446,0.10935 -0.18281,0.20599 0.53702,0.21478 0.71982,0.009 1.0671,-0.0807 0.77174,-0.19879 z m -4.20531,-1.45076 c -4.36375,-2.73562 -5.61506,-4.82831 -5.08859,-8.51017 0.31761,-2.22113 0.71387,-3.04219 2.63375,-5.45713 1.24293,-1.56344 2.39452,-2.84263 2.55909,-2.84263 0.16456,0 0.9134,-0.55453 1.66408,-1.2323 1.64846,-1.48834 4.3428,-2.21766 8.19278,-2.21766 3.34826,0 5.22323,0.94275 7.8051,3.92446 1.22734,1.41739 1.60213,2.23788 1.6409,3.59215 0.0708,2.47421 -0.0725,3.45795 -0.52811,3.6239 -0.21705,0.0791 -0.39463,0.52355 -0.39463,0.98776 0,1.35461 -2.56866,4.67629 -4.68081,6.05303 -0.66475,0.4333 -0.96587,0.7891 -0.66915,0.79065 0.79883,0.004 4.00543,-2.28784 4.02462,-2.87676 0.009,-0.27927 0.47632,-0.86524 1.03825,-1.30218 0.56193,-0.43694 1.43647,-1.89031 1.94343,-3.22973 0.8266,-2.18391 0.87005,-2.71004 0.42099,-5.09703 -0.73641,-3.91441 -2.64659,-5.90208 -6.43989,-6.70112 -3.50117,-0.7375 -5.49002,-0.77065 -8.17351,-0.13623 -3.41957,0.80845 -4.98381,1.73388 -8.05277,4.76417 -3.36044,3.3181 -4.0211,4.96776 -3.76735,9.40698 0.20036,3.50516 1.1651,4.97072 4.3349,6.58525 3.10491,1.58148 4.12668,1.49811 1.53692,-0.12541 z m 11.89135,-3.98137 c 4.49699,-2.89626 6.15743,-6.34901 4.84218,-10.06892 -0.55536,-1.57069 -3.49751,-2.85791 -7.12656,-3.11791 -3.14019,-0.22497 -5.50837,0.47536 -8.30212,2.45517 -4.66305,3.30451 -5.72952,10.32237 -1.81437,11.93944 1.9959,0.82436 1.97993,0.82984 1.97993,-0.6795 0,-1.0017 0.48223,-1.7503 2.07222,-3.21681 1.13972,-1.05122 2.563,-2.15736 3.16285,-2.4581 0.59985,-0.30075 1.82943,-0.99191 2.7324,-1.53593 0.90298,-0.54402 2.47403,-1.10189 3.49121,-1.23971 1.5088,-0.20442 1.99772,-0.0886 2.65446,0.62873 0.44275,0.48363 0.69294,1.05856 0.55598,1.27762 -0.13697,0.21908 -1.48131,0.7386 -2.98746,1.15449 -1.50613,0.4159 -3.55348,1.22645 -4.54965,1.80124 -2.22038,1.28115 -5.82324,4.37006 -5.82324,4.99255 0,0.30579 1.04043,0.36094 3.15098,0.16704 2.70334,-0.24837 3.55019,-0.54661 5.96119,-2.0994 z m 70.25656,8.77495 c 1.28625,-1.78562 1.12738,-2.28889 -1.06803,-3.38339 -2.04541,-1.01971 -3.70107,-1.26317 -3.70107,-0.54419 0,0.57609 3.15776,5.18007 3.5529,5.18007 0.17269,0 0.71998,-0.56362 1.2162,-1.25249 z m 0.90221,-7.31961 c 0,-1.75455 -2.6567,-2.41938 -2.98263,-0.74639 -0.18196,0.93402 0.60071,1.54005 2.00106,1.54948 0.67177,0.004 0.98157,-0.24895 0.98157,-0.80309 z m -4.86032,-3.65366 c 1.10226,-1.15982 1.00246,-1.29428 -2.11976,-2.85608 -1.07973,-0.5401 -2.25762,-1.15312 -2.61753,-1.36227 -0.35991,-0.20915 -2.12674,-1.11932 -3.9263,-2.02261 -1.79955,-0.90328 -5.27755,-2.84258 -7.72888,-4.30954 -2.45134,-1.46696 -4.66783,-2.66721 -4.92554,-2.66721 -0.25771,0 -1.00047,-0.3603 -1.6506,-0.80066 -2.21356,-1.4994 -3.79666,-2.42295 -6.41709,-3.74367 -1.43965,-0.72558 -3.73691,-2.03757 -5.10505,-2.91553 -1.36813,-0.87795 -2.61777,-1.59628 -2.77699,-1.59628 -0.83224,0 -6.21063,-3.99928 -6.64461,-4.94082 -0.72661,-1.57643 -1.83292,-1.42749 -1.83292,0.24676 0,1.51812 2.15914,3.79185 4.51785,4.75764 0.75008,0.30713 2.70874,1.4743 4.35258,2.59372 1.64384,1.11942 3.57293,2.16213 4.28687,2.31714 0.71394,0.15501 1.40397,0.55462 1.5334,0.88803 0.12942,0.33342 0.39218,0.6062 0.58389,0.6062 0.19172,0 2.05989,1.01882 4.15149,2.26404 2.09161,1.24522 4.51492,2.67997 5.38514,3.18834 0.87022,0.50837 2.95642,1.81789 4.636,2.91004 1.67958,1.09215 3.29918,1.98613 3.5991,1.9866 0.29993,4.4e-4 0.54532,0.19232 0.54532,0.42632 0,0.23401 0.66986,0.70214 1.48858,1.04029 0.81872,0.33815 2.91081,1.60215 4.6491,2.80888 3.52651,2.44813 4.60942,2.66066 6.01595,1.18067 z m 184.5258,-20.44416 c -1.29,-2.58933 -1.44031,-8.07664 -0.28641,-10.45545 0.40291,-0.83061 1.14904,-2.47063 1.65805,-3.64449 0.50903,-1.17385 1.60265,-3.06601 2.43029,-4.20479 0.82764,-1.13878 1.50479,-2.16709 1.50479,-2.28513 0,-0.59517 -1.47371,-0.0908 -2.39465,0.81958 -0.57541,0.56881 -2.22548,1.93121 -3.66681,3.02755 -3.57661,2.72053 -13.57002,12.78332 -13.57002,13.66424 0,0.73243 0.72828,1.09426 4.68461,2.32743 1.25686,0.39176 2.38781,0.87639 2.5132,1.07696 0.26567,0.4249 5.16544,2.04909 6.76235,2.24158 1.49242,0.1799 1.54586,-0.19641 0.3646,-2.56748 z m -184.27766,0.37694 c 0.13095,-0.20947 1.34103,-0.51707 2.68906,-0.68356 3.99798,-0.49378 6.76649,-1.48196 9.80771,-3.50073 1.5772,-1.04695 3.09201,-1.90356 3.36623,-1.90356 0.47153,0 2.04895,-1.30535 5.73235,-4.74369 0.88931,-0.83015 3.41952,-3.15758 5.62267,-5.17207 2.20315,-2.0145 4.00573,-3.90161 4.00573,-4.19357 0,-0.29197 0.53987,-0.81419 1.1997,-1.16051 1.50213,-0.78838 5.38911,-3.98137 5.36398,-4.40629 -0.0103,-0.17392 -2.42381,-0.34015 -5.3634,-0.3694 -4.49272,-0.0447 -5.68387,-0.20419 -7.47238,-1.00057 -1.17021,-0.52107 -2.41417,-0.9474 -2.76435,-0.9474 -1.7264,0 -11.44035,-7.99311 -12.92734,-10.63723 -0.24458,-0.43492 -1.19409,-1.72999 -2.10998,-2.87791 -0.91591,-1.14793 -1.66965,-2.31229 -1.67498,-2.58747 -0.006,-0.27519 -0.39361,-0.98549 -0.86282,-1.57845 -0.46921,-0.59296 -0.85747,-1.54494 -0.8628,-2.11552 -0.006,-0.57057 -0.5005,-1.67348 -1.10034,-2.45088 -0.59985,-0.77742 -1.09064,-1.65523 -1.09064,-1.9507 0,-0.68705 -0.85102,-3.37057 -1.40702,-4.43674 -0.52606,-1.00878 -1.52774,-10.81705 -1.43573,-14.05839 0.0764,-2.6923 0.3031,-3.35461 3.39442,-9.91864 0.83776,-1.77888 2.03189,-3.69918 2.6536,-4.26732 0.62171,-0.56815 1.03319,-1.18846 0.91439,-1.37847 -0.23399,-0.37427 -2.80191,0.41875 -5.75087,1.77595 -1.01713,0.46812 -2.06225,0.85113 -2.32248,0.85113 -1.22101,0 -8.68523,2.8294 -11.41839,4.32826 -0.41664,0.22849 -1.02726,0.41543 -1.35694,0.41543 -0.32969,0 -1.33655,0.49448 -2.23746,1.09883 -0.90092,0.60436 -2.25343,1.21807 -3.0056,1.36379 -1.88819,0.36584 -12.93957,5.68946 -13.1992,6.35827 -0.116,0.29882 -0.98309,0.79522 -1.92687,1.10312 -1.78201,0.58137 -2.83556,1.47783 -3.66158,3.11563 -0.26597,0.52736 -0.92006,1.17395 -1.45355,1.43687 -1.56063,0.76912 -2.6217,1.89226 -2.92822,3.09951 -0.15713,0.61887 -0.76374,1.6868 -1.348,2.37319 -0.58427,0.68639 -1.06231,1.50043 -1.06231,1.80896 0,0.30854 -0.27394,0.78572 -0.60875,1.0604 -0.33481,0.27468 -0.74173,1.20008 -0.90425,2.05645 -0.16252,0.85637 -0.57744,1.9824 -0.92203,2.50228 -1.2421,1.87392 -0.87978,13.34803 0.49046,15.53161 0.29767,0.47437 0.67986,1.83279 0.8493,3.01872 0.44717,3.12972 1.38377,5.66343 3.26793,8.84052 0.9143,1.54171 1.89434,3.53052 2.17787,4.4196 0.71169,2.23175 10.12755,10.97176 12.66342,11.75447 0.59985,0.18515 1.38511,0.65419 1.74502,1.04233 0.35991,0.38813 1.5378,1.07947 2.61753,1.53631 1.07974,0.45684 2.64674,1.27589 3.48224,1.82009 0.83551,0.54421 2.16754,0.98947 2.96008,0.98947 0.79253,0 1.87577,0.26925 2.4072,0.59833 0.53142,0.32908 1.99748,0.83373 3.2579,1.12145 1.26043,0.28771 2.40083,0.69767 2.53421,0.91102 0.31385,0.50198 9.6617,0.50861 9.97528,0.007 z m 169.24808,-7.27377 c 1.09356,-1.12663 1.78273,-2.11802 1.53151,-2.20309 -0.57853,-0.19591 -4.36155,0.80316 -5.06064,1.33648 -0.4102,0.31294 -0.4102,0.60631 0,1.33463 0.43497,0.77229 1.1563,1.54478 1.46958,1.5738 0.0392,0.003 0.966,-0.91519 2.05955,-2.04182 z m -0.17419,-5.28084 c 1.60777,-0.47331 3.7884,-1.44009 4.84584,-2.14838 1.05744,-0.70828 2.13162,-1.29133 2.38707,-1.29565 0.69752,-0.0118 9.78754,-9.35607 9.78754,-10.06131 0,-0.33593 0.58918,-1.26778 1.30929,-2.07078 0.72011,-0.80299 1.51935,-2.21127 1.7761,-3.12952 0.25675,-0.91825 1.07295,-2.2168 1.81378,-2.88568 1.44002,-1.30015 2.26105,-3.07779 3.1743,-6.87278 0.31394,-1.30452 0.97557,-3.17488 1.4703,-4.15636 1.22285,-2.42595 2.14356,-11.11811 1.42781,-13.47961 -0.2758,-0.90998 -0.50255,-2.02012 -0.50388,-2.46697 -0.009,-3.11534 -2.75089,-6.752 -5.47027,-7.2563 -4.6103,-0.85496 -8.66696,-0.0732 -11.99825,2.31229 -1.02035,0.73065 -2.09369,1.32846 -2.38517,1.32846 -0.64873,0 -8.34482,7.52425 -9.35592,9.14703 -0.4006,0.64295 -1.25542,1.57882 -1.8996,2.07972 -0.64419,0.50089 -1.17125,1.12859 -1.17125,1.39488 0,0.26628 -0.47739,0.97992 -1.06087,1.58586 -1.17281,1.21797 -4.88827,8.19812 -5.98079,11.23598 -1.26092,3.50616 -2.55596,8.97179 -2.55596,10.78732 0,0.70815 -0.19631,1.28754 -0.43625,1.28754 -0.53662,0 -0.58572,4.17024 -0.0529,4.49574 0.21082,0.1288 0.46861,1.35313 0.57288,2.72073 0.30091,3.94722 2.30289,7.44588 4.26062,7.44588 0.48991,0 0.89075,0.19406 0.89075,0.43124 0,0.76576 6.06084,0.48153 9.15486,-0.42933 z m -0.86602,-0.80625 c 0,-1.52096 4.91897,-4.75245 6.37749,-4.18964 0.7482,0.28872 0.70508,0.40885 -0.48804,1.35946 -0.71982,0.57352 -1.62973,1.04372 -2.02204,1.04491 -0.39229,0.001 -1.03484,0.48728 -1.42788,1.08025 -0.67088,1.01214 -2.43953,1.52327 -2.43953,0.70502 z m -0.52909,-12.48798 c -2.54577,-1.55557 -3.17917,-2.95095 -3.16151,-6.96479 0.0116,-2.64826 0.2243,-4.03896 0.76007,-4.97074 0.40914,-0.71156 0.74509,-1.64298 0.74658,-2.06983 0.004,-1.13575 1.20026,-3.26092 3.11685,-5.53682 0.92655,-1.10024 1.68464,-2.132 1.68464,-2.2928 0,-0.5939 2.35162,-3.31442 3.93979,-4.55784 1.9419,-1.52035 6.18046,-2.30342 8.5601,-1.58148 3.18163,0.96526 4.36635,7.15405 2.36742,12.3671 -1.03107,2.68896 -1.16938,4.67737 -0.34704,4.98931 1.90443,0.72241 -0.39713,4.92006 -2.71394,4.94973 -0.7229,0.009 -2.18194,0.91867 -4.1281,2.57303 -1.65552,1.40729 -3.14483,2.47635 -3.30959,2.37569 -0.16475,-0.10065 -1.55866,0.19546 -3.09755,0.65803 -3.26643,0.98183 -2.91932,0.97701 -4.41772,0.0615 z m 3.58289,-2.63377 c 0,-0.22069 -0.42202,-0.46326 -0.93781,-0.53905 -1.20977,-0.17777 -2.6613,-2.11249 -2.6613,-3.54719 0,-0.61529 -0.19762,-1.11869 -0.43917,-1.11869 -0.63582,0 -0.10469,3.27448 0.73713,4.5445 0.48688,0.73454 1.1039,1.06169 2.00244,1.06169 0.71429,0 1.29871,-0.18057 1.29871,-0.40126 z m 5.14735,-1.94345 c 2.05915,-1.61823 3.57775,-3.35178 3.57775,-4.08418 0,-0.72481 -0.13939,-0.62993 -2.66021,1.81097 -1.2962,1.25509 -2.84752,2.60334 -3.44736,2.99609 -0.98658,0.64596 -1.00739,0.71586 -0.21814,0.73253 0.47989,0.0101 1.71646,-0.6448 2.74796,-1.45541 z m -0.54056,-3.32403 c 1.3053,-1.22034 2.37329,-2.45165 2.37329,-2.73626 0,-0.28461 0.41352,-0.88716 0.91893,-1.33899 1.4233,-1.27242 2.42072,-3.59621 2.73914,-6.38158 0.31516,-2.75699 -0.34524,-4.14297 -1.97411,-4.14297 -1.21417,0 -4.95282,2.43279 -6.14616,3.99939 -2.77372,3.6413 -4.65351,9.53552 -3.77885,11.84888 0.28672,0.75834 0.70848,0.97031 1.93066,0.97031 1.28409,0 1.98831,-0.39687 3.9371,-2.21878 z m 6.91829,1.09452 c 0.73237,-0.27781 0.9669,-1.46322 0.28948,-1.46322 -0.89497,0 -1.7807,0.55921 -1.7807,1.12425 0,0.65219 0.41615,0.74678 1.49122,0.33897 z m -14.14262,-6.57736 c 0,-0.41294 0.23558,-0.98366 0.52351,-1.26829 0.37708,-0.37275 0.38429,-0.51749 0.0257,-0.51749 -0.60163,0 -0.77635,0.2813 -1.1608,1.86893 -0.19404,0.80127 -0.1397,1.12661 0.15781,0.94485 0.24956,-0.15247 0.45374,-0.61507 0.45374,-1.028 z m 14.96298,-0.63569 c 0.76811,-1.15881 1.46287,-5.03441 0.90081,-5.02497 -0.38225,0.006 -2.33988,4.64245 -2.33988,5.54124 0,0.81419 0.73103,0.55192 1.43907,-0.51627 z m -10.23999,-6.26509 c 0.6357,-0.94794 0.62784,-1.00744 -0.11388,-0.86249 -0.43818,0.0856 -1.10396,0.61386 -1.4795,1.17385 -0.6357,0.94793 -0.62784,1.00743 0.11388,0.86249 0.43818,-0.0856 1.10395,-0.61386 1.4795,-1.17385 z m 11.74693,-1.56907 c -0.26464,-2.32092 -0.93597,-3.23458 -2.3767,-3.23458 h -1.06889 l 0.89271,1.12187 c 0.49099,0.61703 1.01788,1.78138 1.17085,2.58747 0.1713,0.90262 0.53266,1.46561 0.94071,1.46561 0.52721,0 0.61737,-0.39644 0.44132,-1.94037 z M 436.0156,250.8124 c -2.19023,-2.37613 -3.13707,-6.25447 -2.88855,-11.83182 0.27625,-6.19949 1.26728,-10.08258 4.08421,-16.00286 0.71042,-1.49306 1.29167,-2.87088 1.29167,-3.06183 0,-0.19094 0.58257,-1.14215 1.2946,-2.11379 0.71202,-0.97164 1.42041,-2.26215 1.57418,-2.8678 0.15378,-0.60565 0.45884,-1.10119 0.6779,-1.10119 0.21908,0 0.63648,-0.53366 0.92757,-1.18592 0.29109,-0.65225 0.85748,-1.4268 1.25865,-1.7212 0.40117,-0.29441 1.1721,-1.45877 1.71318,-2.58748 1.17998,-2.46146 10.27681,-11.53661 12.86398,-12.83332 0.94645,-0.47437 1.81898,-0.95952 1.93895,-1.07811 0.81429,-0.80493 4.14202,-1.86451 6.44652,-2.05264 4.22718,-0.34507 4.27612,-0.19502 -2.08397,-6.38827 -2.03949,-1.98598 -4.00924,-3.71286 -4.37722,-3.83749 -0.36798,-0.12463 -1.01711,-0.80903 -1.44249,-1.5209 -0.42539,-0.71186 -0.93232,-1.29429 -1.12649,-1.29429 -0.19418,0 -1.89198,-1.35842 -3.77288,-3.01871 -1.88089,-1.6603 -3.58377,-3.01872 -3.78418,-3.01872 -0.20039,0 -1.12791,-0.72772 -2.06113,-1.61717 -3.64835,-3.47719 -6.64074,-5.96447 -8.09264,-6.72658 -0.83505,-0.43833 -1.51828,-0.96525 -1.51828,-1.17095 0,-0.40032 -5.81963,-4.28515 -6.41934,-4.28515 -0.19701,0 -1.13995,-0.53067 -2.09542,-1.17927 -2.38931,-1.62191 -4.0388,-2.56804 -6.1604,-3.53351 -0.99311,-0.45194 -1.87652,-0.98338 -1.96315,-1.18099 -0.0866,-0.19761 -1.23724,-0.91926 -2.55691,-1.60368 -5.26749,-2.73185 -7.22728,-3.81468 -7.8526,-4.33872 -1.82776,-1.53172 -12.64793,-2.56157 -15.29277,-1.45554 -0.82668,0.3457 -3.4662,1.26991 -5.8656,2.05381 -2.39941,0.78389 -5.39024,1.98358 -6.64629,2.66599 -1.25605,0.68241 -2.57192,1.24074 -2.92416,1.24074 -0.35224,0 -1.2495,0.7492 -1.99392,1.6649 -0.74442,0.91568 -1.86229,1.93407 -2.48415,2.26305 -1.42164,0.7521 -5.17074,4.33555 -7.05719,6.74537 -0.78912,1.00804 -1.71273,1.83279 -2.05247,1.83279 -0.33975,0 -0.61773,0.28319 -0.61773,0.62931 0,0.34612 -0.50499,1.17087 -1.1222,1.83279 -1.87965,2.0158 -5.03204,6.59852 -6.36264,9.24956 -0.69248,1.37969 -1.74301,3.21348 -2.33451,4.07508 -0.59149,0.8616 -1.40978,2.65912 -1.81842,3.99448 -0.40863,1.33535 -0.97564,2.71901 -1.26002,3.07478 -0.90559,1.13294 -1.90868,6.93366 -2.20588,12.75617 -0.3171,6.21248 0.0968,8.91927 1.86708,12.21049 0.5618,1.04446 1.02144,2.25823 1.02144,2.69727 0,0.43905 0.19632,0.79826 0.43626,0.79826 0.23994,0 0.43626,0.25478 0.43626,0.56619 0,0.68353 2.24608,2.88377 2.94385,2.88377 0.2732,0 0.75324,0.33961 1.06677,0.75468 0.53084,0.70277 5.81745,3.55832 6.58698,3.55794 0.19008,-9e-5 0.58271,0.19498 0.87251,0.43348 1.04278,0.85821 5.64973,3.01632 6.43897,3.01632 0.44359,0 0.96352,0.25098 1.1554,0.55774 0.19188,0.30675 1.23229,0.83412 2.31202,1.17194 1.07973,0.33782 2.45393,0.86189 3.05378,1.16459 0.59986,0.30271 1.61414,0.55157 2.25396,0.55304 0.73934,10e-4 1.45593,0.39973 1.96617,1.09215 0.50324,0.6829 1.61578,1.30817 2.98112,1.67546 3.10995,0.8366 4.57765,1.46224 4.57765,1.95136 0,0.23387 0.98988,0.7158 2.19974,1.07097 1.20987,0.35516 3.61648,1.32847 5.34803,2.16292 1.73155,0.83444 3.78863,1.64377 4.57129,1.7985 0.78265,0.15474 1.52866,0.45033 1.6578,0.65688 0.12913,0.20655 0.54247,0.37555 0.91853,0.37555 0.37605,0 1.8427,0.58218 3.25921,1.29373 1.41651,0.71156 2.85978,1.29374 3.20725,1.29374 0.34747,0 2.06614,0.66383 3.81926,1.47519 1.75312,0.81136 5.0457,2.09622 7.31684,2.85524 2.27114,0.75902 4.3857,1.58338 4.69902,1.83192 0.83039,0.65871 4.39706,1.53729 6.3774,1.57096 l 1.712,0.0291 z m -199.13599,-1.06308 c 1.12012,-0.88118 2.09983,-1.63909 2.17713,-1.68425 0.0773,-0.0452 -0.33317,-0.82815 -0.91218,-1.74 -1.14161,-1.79788 -4.24531,-8.20413 -4.24531,-8.76261 0,-0.18893 -0.29341,-0.89935 -0.65202,-1.57872 -0.35862,-0.67937 -0.76683,-1.91444 -0.90715,-2.74458 -0.14032,-0.83015 -0.63216,-3.30104 -1.093,-5.49086 -0.46082,-2.18982 -0.83787,-5.45651 -0.83787,-7.2593 0,-4.01794 -0.79912,-4.19408 -1.67683,-0.3696 -1.57217,6.85051 -0.70371,20.70905 1.49924,23.92406 0.57755,0.84291 1.0501,1.77433 1.0501,2.06983 0,1.14476 2.64414,5.23817 3.3836,5.23817 0.0978,0 1.09419,-0.72097 2.21429,-1.60214 z m 235.8488,-10.58054 c 1.03964,-0.77086 2.25482,-1.63408 2.70042,-1.91828 0.70414,-0.44911 0.72453,-0.57524 0.15579,-0.9637 -1.33761,-0.91363 -2.92421,-0.52763 -3.86936,0.94137 -0.49597,0.77085 -1.2264,1.83819 -1.62319,2.37185 -0.67238,0.90432 -0.67154,0.9703 0.0123,0.9703 0.40357,0 1.58438,-0.63069 2.62402,-1.40154 z m -146.62713,-0.10987 c 1.20381,-0.56824 13.63987,-12.7068 16.32697,-15.93638 l 0.9921,-1.19238 0.10799,-18.2605 c 0.10469,-17.70484 0.13546,-18.29715 1.01115,-19.46553 1.42566,-1.90213 3.43833,-3.01906 6.01341,-3.3371 2.6497,-0.32726 3.14538,-0.8099 4.53402,-4.4147 0.44029,-1.14298 1.69131,-3.24251 2.78005,-4.66562 1.08873,-1.42311 2.84322,-3.84858 3.89885,-5.38994 2.21585,-3.2354 9.02806,-10.17092 11.36461,-11.57031 0.87597,-0.52464 1.70132,-1.23377 1.83411,-1.57585 0.1328,-0.34208 1.45605,-1.25994 2.94057,-2.03969 3.6356,-1.9096 4.36171,-2.32997 5.58446,-3.23306 0.57499,-0.42468 1.16394,-0.75223 1.30877,-0.72791 0.14483,0.0243 1.2479,-0.48232 2.45125,-1.12589 1.20336,-0.64356 3.31375,-1.49364 4.68975,-1.88906 1.58252,-0.45477 2.50182,-0.95222 2.50182,-1.35377 0,-0.73002 -2.39885,-0.90224 -2.83566,-0.20358 -0.1483,0.23719 -0.89606,0.43373 -1.66171,0.43675 -2.13137,0.008 -7.85759,1.9639 -11.03275,3.76761 -4.13779,2.35057 -9.13451,5.64359 -10.52701,6.93772 -0.66486,0.61787 -2.31471,2.10578 -3.66635,3.30647 -1.35164,1.20069 -3.60926,3.53504 -5.01693,5.18745 -1.40768,1.65241 -2.69267,3.06447 -2.85555,3.1379 -0.16287,0.0734 -1.2276,1.58719 -2.36605,3.36389 -1.91168,2.98345 -2.17222,3.22047 -3.40845,3.10082 -3.21922,-0.31157 -1.42792,-3.92622 5.44978,-10.99702 1.66115,-1.70778 3.02026,-3.2227 3.02026,-3.36647 0,-0.31486 4.40067,-4.52523 4.72976,-4.52523 0.12706,0 1.12707,-0.74029 2.22225,-1.64509 4.42234,-3.65358 10.83312,-7.41106 12.64433,-7.41106 0.25163,0 1.67331,-0.58218 3.15929,-1.29374 1.48599,-0.71155 2.96147,-1.29374 3.27887,-1.29374 0.31739,0 0.57707,-0.1538 0.57707,-0.34179 0,-0.51843 -3.68591,-1.38318 -5.89571,-1.38318 -1.07629,0 -1.95688,-0.16388 -1.95688,-0.36418 0,-0.20031 -1.61961,-0.58061 -3.59911,-0.84512 -5.8204,-0.77777 -16.17842,-2.63802 -17.12302,-3.07522 -1.22048,-0.56489 -14.07846,-2.19084 -18.48924,-2.33804 -2.9461,-0.0983 -3.76991,-0.27525 -4.23986,-0.91056 -0.50856,-0.68752 -0.68282,-0.71128 -1.36036,-0.18548 -0.4274,0.33168 -0.97674,0.85371 -1.22077,1.16006 -0.24403,0.30636 -0.85398,0.79151 -1.35545,1.07812 -2.69964,1.54291 -4.94518,3.26635 -7.34514,5.63734 -3.09705,3.05967 -5.90653,6.41806 -5.90653,7.06055 0,0.24439 -0.39263,0.54585 -0.87251,0.66989 -0.47988,0.12406 -0.87337,0.58332 -0.87441,1.0206 -0.002,0.86274 -1.9113,6.49562 -2.34797,6.92727 -0.14721,0.14552 -0.26766,0.72423 -0.26766,1.286 0,0.56178 -0.27005,1.45122 -0.60013,1.97655 -0.68329,1.0875 -1.3929,4.69829 -1.81222,9.22139 -0.29357,3.1668 -0.0407,4.88671 0.71846,4.88671 0.95397,0 6.04711,2.40584 6.0516,2.85859 0.003,0.26771 0.64286,0.73964 1.42267,1.04874 2.00247,0.79373 6.02832,4.30599 8.60569,7.50781 1.2054,1.49745 2.19162,2.86125 2.19162,3.03067 0,0.16942 0.55758,1.01517 1.23906,1.87946 0.68147,0.86428 1.68266,2.54171 2.22486,3.72764 0.5422,1.18593 1.58938,3.32059 2.32705,4.7437 1.05969,2.0443 1.4108,3.40222 1.6726,6.46868 0.18225,2.13466 0.47001,5.09676 0.63946,6.58243 0.3454,3.02826 -0.37211,9.49089 -1.42372,12.8236 -1.33421,4.2283 -6.89708,11.00966 -11.8053,14.39114 -2.3956,1.65043 -1.44061,2.44983 1.35189,1.13164 z m -6.01982,-3.60489 c 0.22794,-0.20494 1.37591,-0.60307 2.55104,-0.88474 1.48591,-0.35614 2.84015,-1.13197 4.44675,-2.54747 4.31595,-3.80256 6.05016,-7.02847 7.18045,-13.35676 0.30906,-1.73037 0.72507,-3.24579 0.92447,-3.36761 0.4845,-0.296 0.46615,-3.93759 -0.0213,-4.23542 -0.21114,-0.12899 -0.52539,-2.10031 -0.69835,-4.38071 -0.31772,-4.18921 -1.59567,-8.03237 -3.07434,-9.24547 -0.35324,-0.28979 -0.63868,-0.93977 -0.63433,-1.44439 0.0123,-1.43194 -2.29841,-5.76472 -3.38889,-6.35433 -0.53987,-0.2919 -0.98158,-0.79291 -0.98158,-1.11334 0,-0.91339 -6.024,-6.70895 -9.16136,-8.81393 -1.55961,-1.04641 -3.71907,-2.17583 -4.7988,-2.50982 -1.07974,-0.33399 -2.25762,-0.84067 -2.61753,-1.12596 -0.7404,-0.58688 -4.52536,-1.11464 -7.99398,-1.11464 -1.80272,0 -3.1533,0.38512 -6.00035,1.71101 -2.02071,0.94105 -4.17593,2.26482 -4.78941,2.94171 -1.75323,1.93446 -3.46528,4.35969 -3.46528,4.90879 0,0.27571 -0.26953,1.01639 -0.59896,1.64594 -2.55996,4.89221 -3.26441,10.26936 -2.25144,17.18551 0.3753,2.5624 0.84944,5.04703 1.05363,5.52141 0.49619,1.1527 1.07516,2.54314 2.24457,5.39056 0.53575,1.30452 1.43943,2.92041 2.00817,3.59086 0.56874,0.67047 1.03407,1.49354 1.03407,1.82907 0,0.99065 2.8714,4.48835 6.43687,7.84086 1.82883,1.71959 3.4694,3.12653 3.64573,3.12653 0.17632,0 0.87552,0.46039 1.55376,1.02308 1.40085,1.16218 6.50614,3.28937 7.89455,3.28937 0.50687,0 1.04292,0.19406 1.19121,0.43125 0.32949,0.52701 7.73163,0.57923 8.31067,0.0586 z m -10.62174,-13.85787 c -0.55126,-0.23058 -1.63099,-0.86856 -2.39939,-1.41773 -0.76841,-0.54917 -1.96198,-1.27725 -2.65237,-1.61794 -2.19009,-1.08075 -4.78446,-4.93681 -6.80739,-10.11793 -0.93881,-2.40445 -1.31282,-6.25902 -0.89196,-9.19244 0.51294,-3.57515 1.88398,-6.04123 4.63958,-8.34521 1.59222,-1.33126 2.32503,-1.62541 4.6302,-1.85855 3.21376,-0.32504 6.14856,0.41213 8.4005,2.11004 0.81296,0.61295 1.6508,1.11446 1.86186,1.11446 0.468,0 2.72826,2.28515 2.72826,2.7583 0,0.18659 1.07973,1.81927 2.3994,3.62818 1.72386,2.36293 2.39941,3.68025 2.39941,4.67883 0,0.76445 0.16754,1.49227 0.37233,1.61737 0.20478,0.12511 0.50136,1.59989 0.65907,3.27729 0.25334,2.6946 0.15916,3.32552 -0.80859,5.41695 -0.60243,1.30192 -1.09533,2.6144 -1.09533,2.91662 0,0.67925 -2.68935,3.30616 -3.38475,3.30616 -0.27915,0 -0.91815,0.43566 -1.41999,0.96814 -0.77143,0.81852 -1.43135,0.98424 -4.27048,1.07241 -1.84692,0.0574 -3.80909,-0.0844 -4.36036,-0.31495 z m 8.62565,-3.77468 c 0.83368,-0.41471 2.09568,-1.57573 2.80445,-2.58004 1.1167,-1.58236 1.3142,-2.30697 1.48002,-5.42988 0.15514,-2.92198 0.0306,-3.96356 -0.65845,-5.50513 -0.4674,-1.04572 -0.98491,-2.43497 -1.15003,-3.08723 -0.16511,-0.65226 -0.49278,-1.18592 -0.72816,-1.18592 -0.23536,0 -0.42794,-0.27546 -0.42794,-0.61212 0,-0.71807 -4.09067,-5.25114 -5.33065,-5.90713 -1.71576,-0.9077 -1.29307,0.10541 1.06247,2.54659 1.41712,1.46863 2.54101,3.07127 2.72058,3.87945 0.16828,0.75738 0.48717,1.48776 0.70865,1.62307 0.22148,0.13531 0.4027,0.52777 0.4027,0.87214 0,0.34436 0.4417,1.54579 0.98157,2.66983 3.74234,7.79184 -4.13441,16.21253 -11.03909,11.8014 -2.98697,-1.90824 -4.99569,-4.30597 -6.2492,-7.45939 -0.62892,-1.58216 -1.14349,-3.05631 -1.14349,-3.27589 0,-0.21959 -0.3169,-1.0272 -0.70422,-1.79468 -0.95447,-1.89132 -0.6597,-5.89525 0.55994,-7.60581 1.11569,-1.56481 1.77171,-3.45172 1.04586,-3.00828 -0.97907,0.59815 -2.59157,3.60026 -2.81782,5.24609 -0.44751,3.25555 -0.41431,5.56455 0.0934,6.49475 0.28276,0.51808 0.5141,1.42841 0.5141,2.02297 0,0.59455 0.19632,1.20095 0.43626,1.34754 0.23994,0.14658 0.43626,0.66894 0.43626,1.16079 0,0.49185 0.34809,1.20812 0.77352,1.59172 0.42543,0.3836 1.00178,1.2129 1.28075,1.8429 0.65811,1.48614 3.09674,3.41187 5.45615,4.30861 2.59029,0.98448 7.55518,1.00731 9.4924,0.0436 z m -2.27685,-2.96703 c 1.2029,-0.31865 2.72423,-3.4914 2.72423,-5.68141 0,-2.51648 -1.60923,-6.76678 -3.8153,-10.07691 -1.76104,-2.64238 -6.82684,-4.54165 -9.4548,-3.54479 -1.07761,0.40877 -0.82082,1.26039 0.80572,2.6721 2.18473,1.8962 4.96916,6.13566 5.76634,8.77961 0.48338,1.60318 0.61984,3.18567 0.44953,5.21291 l -0.24455,2.9109 1.39245,-0.006 c 0.76585,-0.004 1.83522,-0.12318 2.37638,-0.26653 z m -5.20743,-3.6088 c 0.13348,-2.27684 -1.0155,-6.89992 -1.71484,-6.89992 -0.16745,0 -0.8131,-0.85796 -1.43477,-1.90658 -0.81704,-1.37816 -1.56835,-2.04949 -2.71082,-2.4222 -2.0435,-0.66667 -2.40566,-0.14047 -2.0889,3.03504 0.31377,3.14541 1.26279,5.68114 2.58619,6.91013 0.59381,0.55145 1.07966,1.17218 1.07966,1.37939 0,0.72977 2.40998,2.48282 3.27191,2.38005 0.73414,-0.0876 0.89457,-0.48021 1.01157,-2.47591 z m 0.95158,-18.54354 c -0.35991,-0.22992 -0.8507,-0.41804 -1.09064,-0.41804 -0.23994,0 -0.14178,0.18812 0.21813,0.41804 0.35991,0.22992 0.85069,0.41803 1.09064,0.41803 0.23994,0 0.14178,-0.18811 -0.21813,-0.41803 z m 171.66641,39.66183 c 0.95977,-0.6986 3.04964,-2.13162 4.64419,-3.18449 1.59453,-1.05288 3.0294,-2.12265 3.18859,-2.37727 0.15919,-0.25461 0.63592,-0.46294 1.05941,-0.46294 0.42349,0 1.73703,-0.68057 2.91898,-1.51239 1.18195,-0.83182 3.5232,-2.08383 5.20279,-2.78223 1.67958,-0.69841 3.83147,-1.66735 4.78199,-2.15319 0.9505,-0.48584 1.93965,-0.88336 2.19809,-0.88336 0.25844,0 1.24001,-0.38812 2.18127,-0.86249 0.94126,-0.47437 2.14908,-0.86249 2.68403,-0.86249 0.53496,0 1.07845,-0.16923 1.20777,-0.37606 0.19916,-0.31855 3.81834,-1.08945 9.19586,-1.95876 0.71982,-0.11636 2.58481,-0.50786 4.14442,-0.86999 3.79686,-0.88161 12.74459,-0.8699 18.09503,0.0236 2.30548,0.38503 4.33051,0.5617 4.50007,0.39259 0.57384,-0.57231 -2.10344,-2.22055 -5.21705,-3.21184 -2.26585,-0.72139 -4.51638,-1.04091 -8.38359,-1.19026 -2.90746,-0.11228 -5.72131,-0.41314 -6.25299,-0.66858 -0.6706,-0.32218 -1.13829,-0.3271 -1.52689,-0.0161 -0.30811,0.2466 -2.03256,0.58356 -3.83211,0.7488 -4.04821,0.37172 -12.3092,2.15416 -13.88241,2.99536 -0.64262,0.3436 -3.10135,1.23383 -5.46385,1.97827 -2.36252,0.74445 -4.91461,1.72672 -5.67132,2.18285 -0.75673,0.45611 -1.68189,0.83002 -2.05592,0.83091 -0.37404,7e-4 -1.06114,0.30595 -1.5269,0.67793 -0.79509,0.63499 -0.74021,0.66135 0.8982,0.43147 0.95976,-0.13466 2.13765,-0.35126 2.61753,-0.48134 0.47988,-0.13008 1.2313,0.0238 1.66982,0.34189 0.76974,0.5584 0.76785,0.61437 -0.0545,1.61819 -0.60722,0.74127 -1.77549,1.25124 -4.06923,1.77625 -5.51386,1.26207 -6.38458,1.54216 -7.72306,2.48428 -0.71523,0.50345 -1.60207,0.91536 -1.97077,0.91536 -0.3687,0 -0.79169,0.19406 -0.93998,0.43124 -0.14829,0.23719 -0.57307,0.43125 -0.94396,0.43125 -0.58945,0 -2.76531,0.96361 -5.59986,2.48001 -0.47989,0.25671 -1.51054,0.70055 -2.29034,0.98629 -2.24456,0.82249 -1.77016,2.82267 0.81611,3.44091 2.04279,0.48832 3.36747,0.16607 5.40052,-1.31377 z m -2.87001,-7.90052 c 5.5502,-4.69076 25.08083,-14.49639 28.90896,-14.51416 0.31494,-0.001 1.10517,-0.27729 1.75607,-0.61296 2.2899,-1.18089 11.66354,-2.72859 18.66616,-3.08201 4.78117,-0.24129 6.74821,-0.0721 13.00078,1.11805 1.51183,0.28778 2.8532,0.42001 2.98084,0.29384 0.12763,-0.12616 -0.74004,-1.45854 -1.92815,-2.96084 -1.18811,-1.50231 -3.11843,-4.1703 -4.2896,-5.92889 -1.17117,-1.75859 -2.5598,-3.79623 -3.08583,-4.52808 -0.52604,-0.73186 -0.96774,-1.53938 -0.98157,-1.79452 -0.0139,-0.25514 -0.52712,-0.93005 -1.14064,-1.4998 -0.61351,-0.56975 -1.70765,-2.05903 -2.43142,-3.30951 -0.72376,-1.25048 -1.60216,-2.2736 -1.95199,-2.2736 -0.34983,0 -0.75829,-0.33961 -0.90768,-0.75468 -0.1494,-0.41508 -0.97757,-1.43746 -1.84039,-2.27197 -0.86282,-0.83451 -1.94006,-2.23562 -2.39385,-3.11356 -0.45379,-0.87795 -2.51723,-3.39716 -4.58542,-5.59825 -2.0682,-2.2011 -4.997,-5.39956 -6.50846,-7.1077 -1.51145,-1.70813 -3.12891,-3.22518 -3.59435,-3.37121 -0.46545,-0.14603 -0.84627,-0.53326 -0.84627,-0.86051 0,-0.83849 -17.21315,-16.81068 -19.13694,-17.7573 -1.3332,-0.65601 -2.69469,-0.77864 -8.56525,-0.77149 -6.45858,0.008 -7.22455,0.095 -10.252,1.16643 -4.79945,1.69852 -12.78502,5.79571 -15.70519,8.05794 -0.83979,0.65058 -2.60663,1.87295 -3.9263,2.71637 -1.31967,0.84341 -3.67543,2.74434 -5.23503,4.22427 l -2.83564,2.69078 1.51182,1.13336 c 3.35349,2.51401 12.41281,10.27367 14.24879,12.20466 2.6889,2.82804 5.21884,5.34575 7.14614,7.11158 1.07787,0.98755 2.84317,2.75533 3.92289,3.92838 1.07974,1.17305 3.56978,3.80122 5.53342,5.84037 4.8974,5.08572 6.52364,8.44855 6.782,14.02417 0.19941,4.30344 -0.26113,8.82324 -1.03672,10.17456 -0.62669,1.0919 -2.55359,6.70377 -2.55359,7.43703 0,0.72824 0.40407,0.72482 1.27441,-0.0107 z m -131.40124,-7.70466 c 1.26723,-1.23712 2.30407,-2.42003 2.30407,-2.62871 0,-0.20867 -0.38053,-0.90765 -0.84561,-1.55329 -1.30375,-1.80994 -2.03768,-9.14373 -1.43762,-14.36558 0.26074,-2.26904 0.67389,-4.48535 0.91809,-4.92512 0.24421,-0.43976 0.64964,-2.25503 0.90095,-4.03391 0.25132,-1.77889 0.57963,-3.67098 0.72957,-4.20465 0.38039,-1.35381 -0.85001,-1.28481 -2.96854,0.16647 -1.55667,1.06639 -1.85121,1.59695 -1.75948,3.16939 0.0206,0.35232 -0.12297,0.74044 -0.31894,0.86249 -0.19597,0.12206 -0.47351,6.86848 -0.61677,14.99207 -0.20052,11.37155 -0.13957,14.77015 0.26489,14.77015 0.28893,0 1.56216,-1.01219 2.82939,-2.24931 z"
       id="path1"
       inkscape:export-filename="mecanum_wheel.pdf"
       inkscape:export-xdpi="96"
       inkscape:export-ydpi="96" /></g></svg>
